<?xml version="1.0" encoding="UTF-8" standalone="no"?>
<svg
   xmlns:dc="http://purl.org/dc/elements/1.1/"
   xmlns:cc="http://creativecommons.org/ns#"
   xmlns:rdf="http://www.w3.org/1999/02/22-rdf-syntax-ns#"
   xmlns:svg="http://www.w3.org/2000/svg"
   xmlns="http://www.w3.org/2000/svg"
   xmlns:sodipodi="http://sodipodi.sourceforge.net/DTD/sodipodi-0.dtd"
   xmlns:inkscape="http://www.inkscape.org/namespaces/inkscape"
   sodipodi:docname="hera.svg"
   inkscape:version="1.0 (4035a4fb49, 2020-05-01)"
   width="256.0px"
   height="256.0px"
   viewBox="0 0 256.0 256.0"
   version="1.1"
   id="SVGRoot">
  <defs
     id="defs1494">
    <inkscape:path-effect
       fuse_tolerance="0"
       hide_knot="false"
       vertical_pattern="false"
       prop_units="false"
       tang_offset="0"
       normal_offset="0"
       spacing="0"
       scale_y_rel="false"
       prop_scale="0.296575"
       copytype="single_stretched"
       pattern="m -3.4469915,16.516088 c 0,-2.563356 2.2165705,-4.643762 4.947702,-4.643762 2.7311315,0 4.9477021,2.080406 4.9477021,4.643762 0,2.563357 -2.2165706,4.643762 -4.9477021,4.643762 -2.7311315,0 -4.947702,-2.080405 -4.947702,-4.643762 z"
       lpeversion="1"
       is_visible="true"
       id="path-effect891"
       effect="skeletal" />
    <inkscape:path-effect
       fuse_tolerance="0"
       hide_knot="false"
       vertical_pattern="false"
       prop_units="false"
       tang_offset="0"
       normal_offset="0"
       spacing="0"
       scale_y_rel="false"
       prop_scale="0.296575"
       copytype="single_stretched"
       pattern="m 1.9244761,16.516088 c 0,-2.563356 2.0804054,-4.643762 4.643762,-4.643762 2.5633563,0 4.6437619,2.080406 4.6437619,4.643762 0,2.563357 -2.0804056,4.643762 -4.6437619,4.643762 -2.5633566,0 -4.643762,-2.080405 -4.643762,-4.643762 z"
       lpeversion="1"
       is_visible="true"
       id="path-effect887"
       effect="skeletal" />
    <inkscape:path-effect
       fuse_tolerance="0"
       hide_knot="false"
       vertical_pattern="false"
       prop_units="false"
       tang_offset="0"
       normal_offset="0"
       spacing="0"
       scale_y_rel="false"
       prop_scale="0.150066"
       copytype="single_stretched"
       pattern="m -35.606004,-24.893709 c 0,-3.543308 2.875729,-6.419037 6.419038,-6.419037 3.543309,0 6.419037,2.875729 6.419037,6.419037 0,3.543309 -2.875728,6.419038 -6.419037,6.419038 -3.543309,0 -6.419038,-2.875729 -6.419038,-6.419038 z"
       lpeversion="1"
       is_visible="true"
       id="path-effect2211"
       effect="skeletal" />
    <inkscape:path-effect
       fuse_tolerance="0"
       hide_knot="false"
       vertical_pattern="false"
       prop_units="false"
       tang_offset="0"
       normal_offset="0"
       spacing="0"
       scale_y_rel="false"
       prop_scale="0.28264852"
       copytype="single_stretched"
       pattern="m -40.409565,-39.586477 c 0,-3.815127 3.096336,-6.911462 6.911463,-6.911462 3.815128,0 6.911463,3.096335 6.911463,6.911462 0,3.815128 -3.096335,6.911463 -6.911463,6.911463 -3.815127,0 -6.911463,-3.096335 -6.911463,-6.911463 z"
       lpeversion="1"
       is_visible="true"
       id="path-effect2207"
       effect="skeletal" />
    <inkscape:path-effect
       fuse_tolerance="0"
       hide_knot="false"
       vertical_pattern="false"
       prop_units="false"
       tang_offset="0"
       normal_offset="0"
       spacing="0"
       scale_y_rel="false"
       prop_scale="0.30790234"
       copytype="single_stretched"
       pattern="m -40.409565,-39.586477 c 0,-3.815127 3.096336,-6.911462 6.911463,-6.911462 3.815128,0 6.911463,3.096335 6.911463,6.911462 0,3.815128 -3.096335,6.911463 -6.911463,6.911463 -3.815127,0 -6.911463,-3.096335 -6.911463,-6.911463 z"
       lpeversion="1"
       is_visible="true"
       id="path-effect2203"
       effect="skeletal" />
    <inkscape:path-effect
       fuse_tolerance="0"
       hide_knot="false"
       vertical_pattern="false"
       prop_units="false"
       tang_offset="0"
       normal_offset="0"
       spacing="0"
       scale_y_rel="false"
       prop_scale="0.150066"
       copytype="single_stretched"
       pattern="M 0,5 C 0,2.24 2.24,0 5,0 7.76,0 10,2.24 10,5 10,7.76 7.76,10 5,10 2.24,10 0,7.76 0,5 Z"
       lpeversion="1"
       is_visible="true"
       id="path-effect2199"
       effect="skeletal" />
    <inkscape:path-effect
       fuse_tolerance="0"
       hide_knot="false"
       vertical_pattern="false"
       prop_units="false"
       tang_offset="0"
       normal_offset="0"
       spacing="0"
       scale_y_rel="false"
       prop_scale="0.30816114"
       copytype="single_stretched"
       pattern="m -40.409565,-39.586477 c 0,-3.815127 3.096336,-6.911462 6.911463,-6.911462 3.815128,0 6.911463,3.096335 6.911463,6.911462 0,3.815128 -3.096335,6.911463 -6.911463,6.911463 -3.815127,0 -6.911463,-3.096335 -6.911463,-6.911463 z"
       lpeversion="1"
       is_visible="true"
       id="path-effect2195"
       effect="skeletal" />
    <inkscape:path-effect
       fuse_tolerance="0"
       hide_knot="false"
       vertical_pattern="false"
       prop_units="false"
       tang_offset="0"
       normal_offset="0"
       spacing="0"
       scale_y_rel="false"
       prop_scale="0.150066"
       copytype="single_stretched"
       pattern="M 0,5 C 0,2.24 2.24,0 5,0 7.76,0 10,2.24 10,5 10,7.76 7.76,10 5,10 2.24,10 0,7.76 0,5 Z"
       lpeversion="1"
       is_visible="true"
       id="path-effect2191"
       effect="skeletal" />
    <inkscape:path-effect
       fuse_tolerance="0"
       hide_knot="false"
       vertical_pattern="false"
       prop_units="false"
       tang_offset="0"
       normal_offset="0"
       spacing="0"
       scale_y_rel="false"
       prop_scale="0.31427921"
       copytype="single_stretched"
       pattern="m -40.409565,-39.586477 c 0,-3.815127 3.096336,-6.911462 6.911463,-6.911462 3.815128,0 6.911463,3.096335 6.911463,6.911462 0,3.815128 -3.096335,6.911463 -6.911463,6.911463 -3.815127,0 -6.911463,-3.096335 -6.911463,-6.911463 z"
       lpeversion="1"
       is_visible="true"
       id="path-effect2187"
       effect="skeletal" />
    <inkscape:path-effect
       fuse_tolerance="0"
       hide_knot="false"
       vertical_pattern="false"
       prop_units="false"
       tang_offset="0"
       normal_offset="0"
       spacing="0"
       scale_y_rel="false"
       prop_scale="0.150066"
       copytype="single_stretched"
       pattern="M 0,5 C 0,2.24 2.24,0 5,0 7.76,0 10,2.24 10,5 10,7.76 7.76,10 5,10 2.24,10 0,7.76 0,5 Z"
       lpeversion="1"
       is_visible="true"
       id="path-effect2183"
       effect="skeletal" />
    <inkscape:path-effect
       fuse_tolerance="0"
       hide_knot="false"
       vertical_pattern="false"
       prop_units="false"
       tang_offset="0"
       normal_offset="0"
       spacing="0"
       scale_y_rel="false"
       prop_scale="0.29068112"
       copytype="single_stretched"
       pattern="m -40.409565,-39.586477 c 0,-3.815127 3.096336,-6.911462 6.911463,-6.911462 3.815128,0 6.911463,3.096335 6.911463,6.911462 0,3.815128 -3.096335,6.911463 -6.911463,6.911463 -3.815127,0 -6.911463,-3.096335 -6.911463,-6.911463 z"
       lpeversion="1"
       is_visible="true"
       id="path-effect2179"
       effect="skeletal" />
    <inkscape:path-effect
       fuse_tolerance="0"
       hide_knot="false"
       vertical_pattern="false"
       prop_units="false"
       tang_offset="0"
       normal_offset="0"
       spacing="0"
       scale_y_rel="false"
       prop_scale="0.150066"
       copytype="single_stretched"
       pattern="m -40.409565,-39.586477 c 0,-3.815127 3.096336,-6.911462 6.911463,-6.911462 3.815128,0 6.911463,3.096335 6.911463,6.911462 0,3.815128 -3.096335,6.911463 -6.911463,6.911463 -3.815127,0 -6.911463,-3.096335 -6.911463,-6.911463 z"
       lpeversion="1"
       is_visible="true"
       id="path-effect2175"
       effect="skeletal" />
    <inkscape:path-effect
       fuse_tolerance="0"
       hide_knot="false"
       vertical_pattern="false"
       prop_units="false"
       tang_offset="0"
       normal_offset="0"
       spacing="0"
       scale_y_rel="false"
       prop_scale="0.150066"
       copytype="single_stretched"
       pattern="M 0,5 C 0,2.24 2.24,0 5,0 7.76,0 10,2.24 10,5 10,7.76 7.76,10 5,10 2.24,10 0,7.76 0,5 Z"
       lpeversion="1"
       is_visible="true"
       id="path-effect2171"
       effect="skeletal" />
    <inkscape:path-effect
       fuse_tolerance="0"
       hide_knot="false"
       vertical_pattern="false"
       prop_units="false"
       tang_offset="0"
       normal_offset="0"
       spacing="0"
       scale_y_rel="false"
       prop_scale="0.150066"
       copytype="single_stretched"
       pattern="M 0,5 C 0,2.24 2.24,0 5,0 7.76,0 10,2.24 10,5 10,7.76 7.76,10 5,10 2.24,10 0,7.76 0,5 Z"
       lpeversion="1"
       is_visible="true"
       id="path-effect2167"
       effect="skeletal" />
    <inkscape:path-effect
       fuse_tolerance="0"
       hide_knot="false"
       vertical_pattern="false"
       prop_units="false"
       tang_offset="0"
       normal_offset="0"
       spacing="0"
       scale_y_rel="false"
       prop_scale="0.150066"
       copytype="single_stretched"
       pattern="M 0,5 C 0,2.24 2.24,0 5,0 7.76,0 10,2.24 10,5 10,7.76 7.76,10 5,10 2.24,10 0,7.76 0,5 Z"
       lpeversion="1"
       is_visible="true"
       id="path-effect2163"
       effect="skeletal" />
    <inkscape:path-effect
       fuse_tolerance="0"
       hide_knot="false"
       vertical_pattern="false"
       prop_units="false"
       tang_offset="0"
       normal_offset="0"
       spacing="0"
       scale_y_rel="false"
       prop_scale="0.150066"
       copytype="single_stretched"
       pattern="M 0,5 C 0,2.24 2.24,0 5,0 7.76,0 10,2.24 10,5 10,7.76 7.76,10 5,10 2.24,10 0,7.76 0,5 Z"
       lpeversion="1"
       is_visible="true"
       id="path-effect2159"
       effect="skeletal" />
    <inkscape:path-effect
       fuse_tolerance="0"
       hide_knot="false"
       vertical_pattern="false"
       prop_units="false"
       tang_offset="0"
       normal_offset="0"
       spacing="0"
       scale_y_rel="false"
       prop_scale="0.150066"
       copytype="single_stretched"
       pattern="M 0,5 C 0,2.24 2.24,0 5,0 7.76,0 10,2.24 10,5 10,7.76 7.76,10 5,10 2.24,10 0,7.76 0,5 Z"
       lpeversion="1"
       is_visible="true"
       id="path-effect2155"
       effect="skeletal" />
    <inkscape:path-effect
       fuse_tolerance="0"
       hide_knot="false"
       vertical_pattern="false"
       prop_units="false"
       tang_offset="0"
       normal_offset="0"
       spacing="0"
       scale_y_rel="false"
       prop_scale="0.150066"
       copytype="single_stretched"
       pattern="M 0,5 C 0,2.24 2.24,0 5,0 7.76,0 10,2.24 10,5 10,7.76 7.76,10 5,10 2.24,10 0,7.76 0,5 Z"
       lpeversion="1"
       is_visible="true"
       id="path-effect2151"
       effect="skeletal" />
    <inkscape:path-effect
       fuse_tolerance="0"
       hide_knot="false"
       vertical_pattern="false"
       prop_units="false"
       tang_offset="0"
       normal_offset="0"
       spacing="0"
       scale_y_rel="false"
       prop_scale="0.150066"
       copytype="single_stretched"
       pattern="M 0,5 C 0,2.24 2.24,0 5,0 7.76,0 10,2.24 10,5 10,7.76 7.76,10 5,10 2.24,10 0,7.76 0,5 Z"
       lpeversion="1"
       is_visible="true"
       id="path-effect2147"
       effect="skeletal" />
    <inkscape:path-effect
       fuse_tolerance="0"
       hide_knot="false"
       vertical_pattern="false"
       prop_units="false"
       tang_offset="0"
       normal_offset="0"
       spacing="0"
       scale_y_rel="false"
       prop_scale="0.150066"
       copytype="single_stretched"
       pattern="m -40.409565,-39.586477 c 0,-3.815127 3.096336,-6.911462 6.911463,-6.911462 3.815128,0 6.911463,3.096335 6.911463,6.911462 0,3.815128 -3.096335,6.911463 -6.911463,6.911463 -3.815127,0 -6.911463,-3.096335 -6.911463,-6.911463 z"
       lpeversion="1"
       is_visible="true"
       id="path-effect2143"
       effect="skeletal" />
    <inkscape:path-effect
       fuse_tolerance="0"
       hide_knot="false"
       vertical_pattern="false"
       prop_units="false"
       tang_offset="0"
       normal_offset="0"
       spacing="0"
       scale_y_rel="false"
       prop_scale="0.27031669"
       copytype="single_stretched"
       pattern="m -40.409565,-39.586477 c 0,-3.815127 3.096336,-6.911462 6.911463,-6.911462 3.815128,0 6.911463,3.096335 6.911463,6.911462 0,3.815128 -3.096335,6.911463 -6.911463,6.911463 -3.815127,0 -6.911463,-3.096335 -6.911463,-6.911463 z"
       lpeversion="1"
       is_visible="true"
       id="path-effect2139"
       effect="skeletal" />
    <inkscape:path-effect
       fuse_tolerance="0"
       hide_knot="false"
       vertical_pattern="false"
       prop_units="false"
       tang_offset="0"
       normal_offset="0"
       spacing="0"
       scale_y_rel="false"
       prop_scale="0.150066"
       copytype="single_stretched"
       pattern="m -40.409565,-39.586477 c 0,-3.815127 3.096336,-6.911462 6.911463,-6.911462 3.815128,0 6.911463,3.096335 6.911463,6.911462 0,3.815128 -3.096335,6.911463 -6.911463,6.911463 -3.815127,0 -6.911463,-3.096335 -6.911463,-6.911463 z"
       lpeversion="1"
       is_visible="true"
       id="path-effect2135"
       effect="skeletal" />
    <inkscape:path-effect
       fuse_tolerance="0"
       hide_knot="false"
       vertical_pattern="false"
       prop_units="false"
       tang_offset="0"
       normal_offset="0"
       spacing="0"
       scale_y_rel="false"
       prop_scale="0.150066"
       copytype="single_stretched"
       pattern="m -35.606004,-24.893709 c 0,-3.543308 2.875729,-6.419037 6.419038,-6.419037 3.543309,0 6.419037,2.875729 6.419037,6.419037 0,3.543309 -2.875728,6.419038 -6.419037,6.419038 -3.543309,0 -6.419038,-2.875729 -6.419038,-6.419038 z"
       lpeversion="1"
       is_visible="true"
       id="path-effect2131"
       effect="skeletal" />
    <inkscape:path-effect
       fuse_tolerance="0"
       hide_knot="false"
       vertical_pattern="false"
       prop_units="false"
       tang_offset="0"
       normal_offset="0"
       spacing="0"
       scale_y_rel="false"
       prop_scale="0.150066"
       copytype="single_stretched"
       pattern="m -35.606004,-24.893709 c 0,-3.543308 2.875729,-6.419037 6.419038,-6.419037 3.543309,0 6.419037,2.875729 6.419037,6.419037 0,3.543309 -2.875728,6.419038 -6.419037,6.419038 -3.543309,0 -6.419038,-2.875729 -6.419038,-6.419038 z"
       lpeversion="1"
       is_visible="true"
       id="path-effect2127"
       effect="skeletal" />
    <inkscape:path-effect
       fuse_tolerance="0"
       hide_knot="false"
       vertical_pattern="false"
       prop_units="false"
       tang_offset="0"
       normal_offset="0"
       spacing="0"
       scale_y_rel="false"
       prop_scale="0.150066"
       copytype="single_stretched"
       pattern="m -35.606004,-24.893709 c 0,-3.543308 2.875729,-6.419037 6.419038,-6.419037 3.543309,0 6.419037,2.875729 6.419037,6.419037 0,3.543309 -2.875728,6.419038 -6.419037,6.419038 -3.543309,0 -6.419038,-2.875729 -6.419038,-6.419038 z"
       lpeversion="1"
       is_visible="true"
       id="path-effect2123"
       effect="skeletal" />
    <inkscape:path-effect
       fuse_tolerance="0"
       hide_knot="false"
       vertical_pattern="false"
       prop_units="false"
       tang_offset="0"
       normal_offset="0"
       spacing="0"
       scale_y_rel="false"
       prop_scale="0.150066"
       copytype="single_stretched"
       pattern="m -35.606004,-24.893709 c 0,-3.543308 2.875729,-6.419037 6.419038,-6.419037 3.543309,0 6.419037,2.875729 6.419037,6.419037 0,3.543309 -2.875728,6.419038 -6.419037,6.419038 -3.543309,0 -6.419038,-2.875729 -6.419038,-6.419038 z"
       lpeversion="1"
       is_visible="true"
       id="path-effect2119"
       effect="skeletal" />
    <inkscape:path-effect
       fuse_tolerance="0"
       hide_knot="false"
       vertical_pattern="false"
       prop_units="false"
       tang_offset="0"
       normal_offset="0"
       spacing="0"
       scale_y_rel="false"
       prop_scale="0.150066"
       copytype="single_stretched"
       pattern="m -35.606004,-24.893709 c 0,-3.543308 2.875729,-6.419037 6.419038,-6.419037 3.543309,0 6.419037,2.875729 6.419037,6.419037 0,3.543309 -2.875728,6.419038 -6.419037,6.419038 -3.543309,0 -6.419038,-2.875729 -6.419038,-6.419038 z"
       lpeversion="1"
       is_visible="true"
       id="path-effect2115"
       effect="skeletal" />
    <inkscape:path-effect
       fuse_tolerance="0"
       hide_knot="false"
       vertical_pattern="false"
       prop_units="false"
       tang_offset="0"
       normal_offset="0"
       spacing="0"
       scale_y_rel="false"
       prop_scale="0.150066"
       copytype="single_stretched"
       pattern="m -35.606004,-24.893709 c 0,-3.543308 2.875729,-6.419037 6.419038,-6.419037 3.543309,0 6.419037,2.875729 6.419037,6.419037 0,3.543309 -2.875728,6.419038 -6.419037,6.419038 -3.543309,0 -6.419038,-2.875729 -6.419038,-6.419038 z"
       lpeversion="1"
       is_visible="true"
       id="path-effect2111"
       effect="skeletal" />
    <inkscape:path-effect
       fuse_tolerance="0"
       hide_knot="false"
       vertical_pattern="false"
       prop_units="false"
       tang_offset="0"
       normal_offset="0"
       spacing="0"
       scale_y_rel="false"
       prop_scale="0.150066"
       copytype="single_stretched"
       pattern="m -35.606004,-24.893709 c 0,-3.543308 2.875729,-6.419037 6.419038,-6.419037 3.543309,0 6.419037,2.875729 6.419037,6.419037 0,3.543309 -2.875728,6.419038 -6.419037,6.419038 -3.543309,0 -6.419038,-2.875729 -6.419038,-6.419038 z"
       lpeversion="1"
       is_visible="true"
       id="path-effect2107"
       effect="skeletal" />
    <inkscape:path-effect
       fuse_tolerance="0"
       hide_knot="false"
       vertical_pattern="false"
       prop_units="false"
       tang_offset="0"
       normal_offset="0"
       spacing="0"
       scale_y_rel="false"
       prop_scale="0.15006642"
       copytype="single_stretched"
       pattern="m -35.606004,-24.893709 c 0,-3.543308 2.875729,-6.419037 6.419038,-6.419037 3.543309,0 6.419037,2.875729 6.419037,6.419037 0,3.543309 -2.875728,6.419038 -6.419037,6.419038 -3.543309,0 -6.419038,-2.875729 -6.419038,-6.419038 z"
       lpeversion="1"
       is_visible="true"
       id="path-effect2103"
       effect="skeletal" />
    <inkscape:path-effect
       fuse_tolerance="0"
       hide_knot="false"
       vertical_pattern="false"
       prop_units="false"
       tang_offset="0"
       normal_offset="0"
       spacing="0"
       scale_y_rel="false"
       prop_scale="0.13934125"
       copytype="single_stretched"
       pattern="m -35.606004,-24.893709 c 0,-3.543308 2.875729,-6.419037 6.419038,-6.419037 3.543309,0 6.419037,2.875729 6.419037,6.419037 0,3.543309 -2.875728,6.419038 -6.419037,6.419038 -3.543309,0 -6.419038,-2.875729 -6.419038,-6.419038 z"
       lpeversion="1"
       is_visible="true"
       id="path-effect2099"
       effect="skeletal" />
    <inkscape:path-effect
       fuse_tolerance="0"
       hide_knot="false"
       vertical_pattern="false"
       prop_units="false"
       tang_offset="0"
       normal_offset="0"
       spacing="0"
       scale_y_rel="false"
       prop_scale="0.4"
       copytype="single_stretched"
       pattern="m -35.606004,-24.893709 c 0,-3.543308 2.875729,-6.419037 6.419038,-6.419037 3.543309,0 6.419037,2.875729 6.419037,6.419037 0,3.543309 -2.875728,6.419038 -6.419037,6.419038 -3.543309,0 -6.419038,-2.875729 -6.419038,-6.419038 z"
       lpeversion="1"
       is_visible="true"
       id="path-effect2095"
       effect="skeletal" />
    <inkscape:path-effect
       fuse_tolerance="0"
       hide_knot="false"
       vertical_pattern="false"
       prop_units="false"
       tang_offset="0"
       normal_offset="0"
       spacing="0"
       scale_y_rel="false"
       prop_scale="0.1507623"
       copytype="single_stretched"
       pattern="m -35.606004,-24.893709 c 0,-3.543308 2.875729,-6.419037 6.419038,-6.419037 3.543309,0 6.419037,2.875729 6.419037,6.419037 0,3.543309 -2.875728,6.419038 -6.419037,6.419038 -3.543309,0 -6.419038,-2.875729 -6.419038,-6.419038 z"
       lpeversion="1"
       is_visible="true"
       id="path-effect2091"
       effect="skeletal" />
    <inkscape:path-effect
       fuse_tolerance="0"
       hide_knot="false"
       vertical_pattern="false"
       prop_units="false"
       tang_offset="0"
       normal_offset="0"
       spacing="0"
       scale_y_rel="false"
       prop_scale="0.29657458"
       copytype="single_stretched"
       pattern="m -35.606004,-24.893709 c 0,-3.543308 2.875729,-6.419037 6.419038,-6.419037 3.543309,0 6.419037,2.875729 6.419037,6.419037 0,3.543309 -2.875728,6.419038 -6.419037,6.419038 -3.543309,0 -6.419038,-2.875729 -6.419038,-6.419038 z"
       lpeversion="1"
       is_visible="true"
       id="path-effect2087"
       effect="skeletal" />
  </defs>
  <sodipodi:namedview
     inkscape:snap-global="false"
     inkscape:window-maximized="1"
     inkscape:window-y="-8"
     inkscape:window-x="-8"
     inkscape:window-height="1017"
     inkscape:window-width="1920"
     showgrid="true"
     inkscape:document-rotation="0"
     inkscape:current-layer="layer1"
     inkscape:document-units="px"
     inkscape:cy="121.85257"
     inkscape:cx="350.4856"
     inkscape:zoom="1.979899"
     inkscape:pageshadow="2"
     inkscape:pageopacity="0.0"
     borderopacity="1.0"
     bordercolor="#666666"
     pagecolor="#ffffff"
     id="base">
    <inkscape:grid
       type="xygrid"
       id="grid2064" />
  </sodipodi:namedview>
  <metadata
     id="metadata1497">
    <rdf:RDF>
      <cc:Work
         rdf:about="">
        <dc:format>image/svg+xml</dc:format>
        <dc:type
           rdf:resource="http://purl.org/dc/dcmitype/StillImage" />
        <dc:title />
      </cc:Work>
    </rdf:RDF>
  </metadata>
  <g
     id="layer1"
     inkscape:groupmode="layer"
     inkscape:label="Layer 1">
    <path
       sodipodi:nodetypes="cc"
       inkscape:original-d="m 111.74575,107.66713 c 0,0 42.65176,6.09038 45.21937,-23.437193"
       inkscape:path-effect="#path-effect2087"
       id="path2085"
       d="m 111.7543,107.66833 c 0.004,-0.0305 0.016,-0.0597 0.0357,-0.0877 0,0 0,0 0,0 0.0247,-0.0264 0.0594,-0.0514 0.10383,-0.0751 0,0 0,0 0,0 0.0882,-0.0469 0.21524,-0.0887 0.37865,-0.126 l 0,0 c 0.32109,-0.0735 0.78951,-0.13137 1.38288,-0.18029 l 0,0 c 1.13441,-0.0935 2.83062,-0.16106 4.84192,-0.26734 l 0,0 c 3.69336,-0.1969 9.00569,-0.52814 14.54961,-1.7262 2.07773,-0.45814 4.2485,-1.03951 6.37105,-1.80546 3.21132,-1.15884 5.96013,-2.6127 8.27163,-4.432558 2.34384,-1.824856 4.08673,-3.906041 5.32473,-5.931397 2.97158,-4.824087 3.37771,-8.856246 3.95077,-8.806415 0.57306,0.04983 1.31755,4.249788 -1.40636,10.156843 -1.15103,2.475837 -2.97454,5.07102 -5.60549,7.335057 -2.58673,2.20605 -5.68761,3.96943 -9.23119,5.26601 -2.34985,0.8598 -4.71124,1.44746 -6.95836,1.84411 -6.02476,1.08769 -11.50545,0.95462 -15.33249,0.55162 l 0,0 c -2.0927,-0.21927 -3.75255,-0.52856 -4.90067,-0.83879 l 0,0 c -0.58926,-0.15923 -1.03886,-0.31749 -1.34141,-0.46642 l 0,0 c -0.15231,-0.0751 -0.26627,-0.1473 -0.34082,-0.21578 0,0 0,0 0,0 -0.0374,-0.0344 -0.0648,-0.0677 -0.082,-0.0999 0,0 0,0 0,0 -0.012,-0.0323 -0.016,-0.0638 -0.012,-0.0943 z"
       style="fill:#000000;stroke:none;stroke-width:1.28381px;stroke-linecap:butt;stroke-linejoin:miter;stroke-opacity:1" />
    <path
       sodipodi:nodetypes="cc"
       inkscape:original-d="m 90.207137,90.648976 c 0,0 14.121883,21.824724 30.811373,15.405684"
       inkscape:path-effect="#path-effect2091"
       id="path2089"
       d="m 90.207154,90.649003 c 0.330108,-0.298758 4.483365,3.733578 9.800906,9.446837 0,0 0,0 0,0 1.17916,0.94307 2.46822,1.88545 3.84829,2.74101 1.88571,1.16904 3.7357,2.04864 5.58352,2.65478 0,0 0,0 0,0 3.22867,1.07644 6.14476,1.09966 8.22026,0.90693 2.06385,-0.19164 3.28383,-0.53775 3.35839,-0.3439 0.0746,0.19384 -1.02789,0.91622 -3.17154,1.44109 -2.15005,0.52643 -5.34271,0.77707 -8.94601,-0.27187 0,0 0,0 0,0 -2.04515,-0.60498 -4.09312,-1.53621 -6.12228,-2.79665 -1.4884,-0.92454 -2.843704,-1.94965 -4.056593,-2.98724 0,0 -1e-6,-10e-6 -1e-6,-10e-6 C 93.489728,95.495848 89.87683,90.947956 90.207154,90.649003 Z"
       style="fill:#000000;stroke:none;stroke-width:1.28381px;stroke-linecap:butt;stroke-linejoin:miter;stroke-opacity:1" />
    <path
       inkscape:original-d="m 88.923331,86.797548 c 0,0 -20.632624,23.635802 -20.540922,53.919922 0.0917,30.2841 11.554268,26.95996 11.554268,39.79803 0,12.83808 12.838076,51.35231 38.514223,64.19038 25.67616,12.83808 64.19038,-32.09519 64.19038,-38.51423 0,-6.41904 -6.41903,-44.93326 -12.83808,-51.3523 -6.41903,-6.41903 6.41905,-44.93327 -6.41903,-64.190374"
       inkscape:path-effect="#path-effect2095"
       id="path2093"
       d="m 88.923314,86.797568 c 0.332707,0.219684 -3.055543,6.036092 -9.356353,16.186722 -1e-6,0 -2e-6,0 -3e-6,0 -4.142747,8.38621 -9.621429,22.119 -9.325406,37.72755 0.0951,5.32424 0.455695,11.16818 1.975364,16.67293 0.818979,2.98594 2.06112,5.93731 3.798171,8.62474 1.180254,1.83106 2.743445,3.71101 4.071212,6.06772 1.414491,2.58226 2.110852,5.50024 2.122226,8.43827 0.008,1.77253 0.267658,3.6044 0.608432,5.52128 0,0 3e-6,1e-5 3e-6,1e-5 0.44685,2.47543 1.06465,4.95723 1.797708,7.47035 1.764738,6.043 4.154611,12.07171 7.150321,18.00368 3.169556,6.26317 7.016918,12.41333 11.756871,17.90809 4.50239,5.20288 9.85379,9.9111 16.07553,12.99398 2.70814,1.36331 5.82777,2.02466 8.97439,2.0197 0.0409,2e-5 0.0819,-8e-5 0.12283,-2.9e-4 3.27498,-0.0166 6.58528,-0.75373 9.77732,-1.84718 7.38211,-2.53083 14.06576,-7.01388 20.11154,-11.87331 5.88932,-4.7615 11.16446,-9.97476 15.74439,-15.53536 1.68724,-2.05452 3.24882,-4.08348 4.55006,-6.20954 0.44346,-0.73021 0.8381,-1.41336 1.12149,-2.08004 0,0 0,-10e-6 0,-10e-6 0.16201,-0.5093 0.31821,-0.73837 0.25724,-0.69521 0.0128,-1.08327 -0.12387,-2.26646 -0.25241,-3.52332 -0.21076,-1.99159 -0.4793,-3.98441 -0.76613,-5.95585 -0.78812,-5.41244 -1.72768,-10.66722 -2.77045,-15.73375 -1.14612,-5.55723 -2.34667,-10.70424 -3.912,-15.6706 -0.65245,-2.06374 -1.32784,-4.00817 -2.16329,-5.83373 -0.6446,-1.33833 -1.18567,-2.50719 -1.96374,-3.26048 -1.41409,-1.58906 -1.93113,-3.39272 -2.08449,-4.87016 -0.3517,-2.29076 -0.33547,-4.5264 -0.25847,-6.5719 0.19616,-5.66059 1.00567,-12.7279 1.37617,-17.30961 0.6302,-7.87357 0.80514,-13.72808 0.34357,-19.44233 0,0 0,-1e-5 0,-1e-5 -0.4991,-5.99822 -1.54073,-9.958628 -2.67626,-12.997092 -1.06377,-2.846441 -1.90899,-4.264518 -1.74499,-4.373852 0.26876,-0.179169 4.96127,4.895787 6.61149,17.131384 0,0 0,1e-5 0,1e-5 0.79723,5.80811 0.90222,11.94763 0.54417,19.87427 -0.23742,5.33826 -0.79072,11.09629 -0.83038,17.19272 -0.007,1.98584 0.0174,4.00048 0.36838,5.86498 0.30411,1.22774 0.51987,2.34638 1.09995,2.75245 1.3266,1.3513 2.16967,2.88439 2.82547,4.31198 0.97815,2.03196 1.76025,4.12164 2.47547,6.25211 1.72812,5.13368 3.06564,10.41374 4.3124,16.0234 1.14206,5.12931 2.17414,10.45898 3.0468,15.96024 0.31785,2.00219 0.6189,4.05194 0.8637,6.13 0.15082,1.2388 0.31153,2.59353 0.3243,4.04914 -0.061,1.17394 -0.33796,2.0312 -0.62035,2.56757 0,0 -1e-5,1e-5 -1e-5,1e-5 -0.4212,0.9914 -0.91291,1.88479 -1.41102,2.70603 -1.45886,2.42183 -3.13187,4.65282 -4.8779,6.80406 -4.74916,5.86754 -10.22655,11.35971 -16.3508,16.35924 -6.25065,5.13143 -13.42042,9.92307 -21.6122,12.79987 -3.57324,1.25561 -7.42697,2.0908 -11.41393,2.13796 -0.0498,5.9e-4 -0.0997,0.001 -0.14958,0.001 -3.89298,0.0202 -7.78414,-0.82736 -11.28572,-2.56892 -6.9881,-3.52205 -12.84647,-8.66273 -17.624405,-14.28692 -5.037018,-5.91172 -9.064039,-12.42445 -12.314515,-19.00137 -3.079031,-6.21751 -5.514918,-12.55062 -7.292516,-18.9058 -0.740241,-2.64342 -1.363292,-5.29569 -1.813,-7.97546 0,0 -2e-6,-1e-5 -2e-6,-1e-5 -0.348156,-2.04446 -0.603108,-4.146 -0.595133,-6.3138 0.01138,-2.26071 -0.45432,-4.46685 -1.462692,-6.31333 -1.00027,-1.89871 -2.496481,-3.74278 -3.829363,-5.89418 -1.941536,-3.1419 -3.289647,-6.51092 -4.136788,-9.87942 -1.519852,-6.08811 -1.775197,-12.23955 -1.71272,-17.70547 0.199048,-16.61853 6.399218,-30.54011 11.13033,-38.87455 1e-6,0 2e-6,0 4e-6,0 6.916387,-9.866436 10.936931,-15.270716 11.269714,-15.050982 z"
       style="fill:#000000;stroke:none;stroke-width:1.28381px;stroke-linecap:butt;stroke-linejoin:miter;stroke-opacity:1" />
    <path
       inkscape:original-d="m 82.730781,47.308268 c 0,0 0.162106,12.319995 4.538946,18.804202 4.376837,6.484208 -0.810524,7.943154 1.296845,11.995782 2.10736,4.052632 5.02526,12.968421 5.02526,12.968421 0,0 9.888408,8.591575 18.804198,9.564197 8.91578,0.97264 17.83157,1.78315 23.82946,-3.079992 5.99789,-4.863156 16.37262,-12.4821 15.7242,-22.208412 -0.64842,-9.726311 0.16211,-17.021044 -3.89053,-22.694727 -4.05262,-5.67368 -12.31998,-9.888415 -11.99578,-15.562097"
       inkscape:path-effect="#path-effect2099"
       id="path2097"
       d="m 82.730782,47.308336 c 0.0093,-1.77e-4 0.01851,0.01248 0.02826,0.03792 0.0092,0.02403 0.01862,0.05956 0.02844,0.106274 0,0 0,0 0,0 l 0,0 c 0.0192,0.09133 0.0401,0.227133 0.06341,0.403864 0,0 0,10e-7 0,10e-7 l 0,0 c 0.04424,0.33538 0.100007,0.842928 0.173442,1.480244 l 0,0 c 0.129907,1.127252 0.336986,2.875438 0.695439,4.903718 l 0,0 c 0.497165,2.784348 1.411281,7.804884 4.030487,11.547757 l 0,0 c 0.827208,1.17794 1.626594,2.616386 1.897864,4.273116 l 0,0 c 0.156953,1.048901 0.04817,2.11948 -0.242537,3.144991 l 0,0 c -0.226424,0.820163 -0.544726,1.617012 -0.636512,2.331954 l 0,0 c -0.110366,0.737287 0.0547,1.538145 0.427845,2.2423 1.346887,2.544418 2.329822,5.171347 3.396341,8.058287 l 0,0 c 0.0067,0.01968 1.633591,4.780979 1.640338,4.800662 7.5e-5,1.26e-4 7.9e-5,1.3e-4 7.9e-5,1.3e-4 -6.06e-4,-0.0068 -9.16e-4,-0.01354 -0.0014,-0.02041 -0.0012,-0.01896 -0.0021,-0.0379 -0.0027,-0.05677 l -4e-6,-6e-6 c 0.106846,0.08943 0.215327,0.178609 0.325258,0.268054 0,0 5e-6,3e-6 5e-6,3e-6 l 0,0 c 0.401402,0.326598 0.811895,0.647841 1.230883,0.966823 l 0,0 c 1.372165,1.044491 2.815141,2.048446 4.327192,2.995952 l 0,0 c 3.69047,2.294286 7.89858,4.513642 12.37864,4.972392 4.17355,0.44331 8.57577,0.93441 12.85162,0.63154 0.46711,-0.0349 0.93563,-0.0802 1.4034,-0.13743 3.34053,-0.408687 6.50569,-1.407053 8.91994,-3.388265 3.80155,-3.079225 7.31297,-5.788206 10.26997,-9.154149 1.60598,-1.828835 2.97669,-3.743432 3.92026,-5.81565 0.95819,-2.10424 1.44082,-4.34421 1.30493,-6.496634 0,-10e-7 0,-3e-6 0,-5e-6 -0.28039,-4.606385 -0.20338,-8.912299 -0.5738,-12.84844 -0.36845,-3.779554 -1.21827,-7.009235 -3.00622,-9.557716 -1.919,-2.778254 -5.83939,-6.186794 -7.44937,-7.827363 -1.42798,-1.448615 -2.40824,-2.624457 -3.1438,-3.89847 -1.42788,-2.461413 -1.02463,-4.183063 -0.92507,-4.177374 0.0996,0.0057 -0.0695,1.638165 1.41027,3.877244 0.78355,1.180925 1.76194,2.227453 3.23402,3.609026 1.68046,1.569686 5.63996,4.764155 7.82903,7.734733 1.99229,2.743937 3.01613,6.186785 3.43747,10.09754 0.4476,4.02868 0.43595,8.372007 0.76357,12.885747 0,2e-6 0,4e-6 0,6e-6 0.17068,2.44622 -0.33002,4.953838 -1.37487,7.282309 -1.01958,2.272208 -2.46448,4.340415 -4.13941,6.261185 -3.08282,3.536693 -6.66248,6.341776 -10.43896,9.406897 -2.78318,2.232909 -6.25379,3.372359 -9.82304,3.795219 -0.49987,0.0592 -0.99879,0.10404 -1.49466,0.13591 -4.49553,0.30505 -8.99546,-0.19831 -13.16626,-0.6653 -4.92006,-0.56675 -9.34397,-2.898878 -13.084985,-5.303929 -1.549467,-0.988457 -3.02465,-2.034514 -4.42435,-3.122022 l 0,0 c -0.427428,-0.332046 -0.848448,-0.668541 -1.262277,-1.012423 l 0,0 c 0,0 -4e-6,-3e-6 -4e-6,-3e-6 -0.113321,-0.09417 -0.226634,-0.189353 -0.339725,-0.286046 0.01687,0.01956 -0.192814,-0.223804 -0.175938,-0.204242 -0.02098,-0.02443 -0.0422,-0.04907 -0.06316,-0.07359 -5e-6,-7e-6 -9e-6,-1.1e-5 -9e-6,-1.1e-5 0.0077,0.02195 -1.822817,-5.17953 -1.815027,-5.157453 l 0,0 C 90.101218,83.458281 89.189571,80.89216 87.936225,78.436032 87.444472,77.47693 87.252791,76.386193 87.411698,75.333929 l 0,0 c 0.155901,-0.93072 0.501887,-1.774496 0.721116,-2.495741 l 0,0 c 0.261663,-0.884756 0.380664,-1.766859 0.26404,-2.594544 l 0,0 c -0.169471,-1.366058 -0.870662,-2.667448 -1.607659,-3.806815 l 0,0 C 84.092033,62.302545 83.357572,57.196377 83.002887,54.348845 l 0,0 c -0.264148,-2.088918 -0.354151,-3.82461 -0.376179,-4.985648 l 0,-10e-7 c -0.01239,-0.652402 -0.0037,-1.152945 0.01574,-1.499011 l 0,0 c 0,0 0,0 0,0 0.01006,-0.179563 0.02295,-0.315755 0.0377,-0.408994 l 0,0 c 0,0 0,-10e-7 0,-10e-7 0.0075,-0.04735 0.01542,-0.08328 0.02369,-0.107786 0.0088,-0.02589 0.01761,-0.03889 0.02695,-0.03907 z"
       style="fill:#000000;stroke:none;stroke-width:1.28381px;stroke-linecap:butt;stroke-linejoin:miter;stroke-opacity:1" />
    <path
       inkscape:original-d="m 116.85392,94.724038 c 0,0 13.61683,-1.702112 16.53473,-4.782104"
       inkscape:path-effect="#path-effect2103"
       id="path2101"
       d="m 116.85398,94.72403 c -0.004,-0.03229 0.006,-0.06488 0.0298,-0.09994 0,0 0,-10e-7 0,-10e-7 0.0227,-0.03341 0.058,-0.06809 0.10515,-0.103916 l 0,0 0,0 0,0 c 0.0935,-0.07107 0.23408,-0.146975 0.4167,-0.226916 l 0,0 c 0.35939,-0.15733 0.88489,-0.331879 1.53633,-0.519231 l 0,0 c 1.25482,-0.360908 2.9623,-0.764574 4.89875,-1.218514 0.44436,-0.104435 0.90398,-0.21139 1.34834,-0.315825 1.61175,-0.378762 2.82075,-0.678623 4.11425,-1.040902 2.49323,-0.75421 3.82637,-1.50218 4.08532,-1.256854 0.38853,0.368079 -0.94465,1.791416 -3.53146,2.831982 -1.2358,0.521997 -2.63906,0.96877 -4.22714,1.34204 -0.47191,0.110919 -0.93676,0.209907 -1.38915,0.298589 -1.99423,0.392245 -3.78649,0.583028 -5.09964,0.626798 l 0,0 c -0.6874,0.02296 -1.24457,0.0054 -1.63811,-0.04752 l 0,0 c -0.19949,-0.02685 -0.35622,-0.06268 -0.46591,-0.107108 l 0,0 0,0 0,0 c -0.0552,-0.02237 -0.0983,-0.04685 -0.12895,-0.07344 0,0 0,0 0,0 -0.032,-0.0279 -0.0502,-0.05693 -0.0543,-0.08924 z"
       style="fill:#000000;stroke:none;stroke-width:1.28381px;stroke-linecap:butt;stroke-linejoin:miter;stroke-opacity:1" />
    <path
       inkscape:original-d="m 114.84019,80.905791 c 0,0 -1.54745,5.272777 2.6937,3.66802"
       inkscape:path-effect="#path-effect2107"
       id="path2105"
       d="m 114.84015,80.905937 c 0.45468,0.04503 0.73198,1.094666 0.68902,2.430727 0,0 0,0 0,0 0.0605,0.142327 0.0959,0.249186 0.13581,0.358158 0.0473,0.129105 0.0788,0.194863 0.13311,0.188407 0,0 0,0 0,0 0.0982,0.229259 0.57635,0.247643 0.95536,0.312778 0.40219,0.06912 0.70203,0.170564 0.78044,0.377804 0.0776,0.205071 -0.0578,0.509306 -0.47661,0.787622 -0.41879,0.278316 -1.17432,0.53088 -2.19958,0.115611 0,0 0,0 0,0 -0.43162,-0.293323 -0.7632,-0.684962 -0.96618,-1.124956 -0.15612,-0.338427 -0.22325,-0.676941 -0.22483,-0.985178 0,0 0,0 0,0 0.23697,-1.479599 0.71611,-2.506264 1.17346,-2.460973 z"
       style="fill:#000000;stroke:none;stroke-width:1.28381px;stroke-linecap:butt;stroke-linejoin:miter;stroke-opacity:1" />
    <path
       inkscape:original-d="m 125.04188,75.403758 c 0,0 8.99812,3.839965 2.6937,6.934859"
       inkscape:path-effect="#path-effect2111"
       id="path2109"
       d="m 125.04196,75.403791 c 0.0148,-0.03285 0.0382,-0.05964 0.0714,-0.08329 0,0 0,0 0,0 0.031,-0.02194 0.07,-0.03974 0.1166,-0.05334 0,0 0,0 0,0 0.0915,-0.02672 0.21176,-0.0371 0.35753,-0.03072 l 0,0 c 0.28011,0.01284 0.6555,0.08834 1.09582,0.234458 l 0,0 c 0.74612,0.244398 1.77092,0.72072 2.72267,1.547989 0.24168,0.18196 0.48369,0.410614 0.70092,0.687683 0.49696,0.633865 0.79325,1.430599 0.77024,2.297933 -0.10273,0.771073 -0.47557,1.31724 -0.87533,1.661577 -1.17981,1.024531 -2.12789,0.954417 -2.26627,0.672538 -0.13837,-0.281878 0.61801,-0.837599 1.11872,-1.696469 0.13761,-0.255328 0.26338,-0.545137 0.21682,-0.739736 0.0414,-0.271574 -0.1635,-0.562156 -0.49733,-0.953389 -0.14544,-0.170457 -0.30536,-0.349472 -0.45906,-0.532907 -0.64711,-0.645996 -1.5637,-1.339294 -2.07647,-1.770224 l 0,0 c -0.33162,-0.277545 -0.59985,-0.520302 -0.77652,-0.724729 l 0,0 c -0.0929,-0.106998 -0.1605,-0.203686 -0.19892,-0.288558 0,0 0,0 0,0 -0.0196,-0.04331 -0.0317,-0.08372 -0.0357,-0.120976 0,0 0,0 0,0 -0.004,-0.04007 1.2e-4,-0.07501 0.0149,-0.107841 z"
       style="fill:#000000;stroke:none;stroke-width:1.28381px;stroke-linecap:butt;stroke-linejoin:miter;stroke-opacity:1" />
    <path
       inkscape:original-d="m 118.50822,83.255617 c 0.28656,-0.05733 4.69965,1.031631 6.41903,-2.005952"
       inkscape:path-effect="#path-effect2115"
       id="path2113"
       d="m 118.50822,83.255617 c -0.0264,-0.131932 0.22437,-0.272718 0.33318,-0.354339 0.16323,-0.07646 0.36753,-0.133511 0.61001,-0.18722 0.45587,-0.100261 1.03544,-0.169414 1.65038,-0.27273 0.24028,-0.04647 0.49406,-0.100353 0.74868,-0.16228 0.86243,-0.209751 1.4367,-0.434848 1.97786,-0.696316 0.49851,-0.240864 0.86755,-0.464038 1.09892,-0.333074 0.22129,0.125255 0.26027,0.633408 -0.17152,1.295907 -0.43133,0.661804 -1.27339,1.340622 -2.44699,1.624344 -0.35962,0.08694 -0.71344,0.127072 -1.04968,0.129235 -0.78996,0.01568 -1.4619,-0.134426 -1.92987,-0.32288 -0.24857,-0.09928 -0.44447,-0.213311 -0.57901,-0.322438 -0.14333,-0.06965 -0.23328,-0.354824 -0.24196,-0.398209 z"
       style="fill:#000000;stroke:none;stroke-width:1.28381px;stroke-linecap:butt;stroke-linejoin:miter;stroke-opacity:1" />
    <path
       inkscape:original-d="m 97.990222,78.326714 c 0,0 10.774818,-0.630437 12.952708,-3.954587"
       inkscape:path-effect="#path-effect2119"
       id="path2117"
       d="m 97.990299,78.326709 c -0.0022,-0.0326 0.007,-0.06439 0.02727,-0.09761 0,0 0,0 0,0 0.01915,-0.0313 0.04817,-0.0629 0.08652,-0.09475 0,0 0,0 0,0 0.07603,-0.06316 0.189138,-0.127609 0.335156,-0.193046 l 0,0 10e-7,0 c 0.286228,-0.12852 0.702224,-0.262416 1.21547,-0.40108 l 0,0 c 0.991206,-0.267871 2.318076,-0.546444 3.828556,-0.878409 0,0 0,0 0,0 0.36927,-0.08178 0.76063,-0.167961 1.14398,-0.254962 1.1842,-0.268757 2.12471,-0.508768 3.06451,-0.802376 1.96415,-0.681601 2.94589,-1.432358 3.25117,-1.232348 0.37409,0.245093 -0.36767,1.783853 -2.62193,2.803331 -0.95246,0.461554 -2.04109,0.83319 -3.2666,1.11181 -0.41228,0.09373 -0.81769,0.171916 -1.21042,0.237555 0,0 0,0 0,0 -1.59027,0.268587 -3.01405,0.334321 -4.053949,0.284398 l 0,0 c -0.545189,-0.02608 -0.985366,-0.08422 -1.29486,-0.165803 l 0,-10e-7 0,0 c -0.156671,-0.04142 -0.279259,-0.08865 -0.364561,-0.140879 0,0 0,0 0,0 -0.04294,-0.02629 -0.07632,-0.05379 -0.09976,-0.0824 0,0 0,0 0,0 -0.02477,-0.03036 -0.03831,-0.06081 -0.04055,-0.09342 z"
       style="fill:#000000;stroke:none;stroke-width:1.28381px;stroke-linecap:butt;stroke-linejoin:miter;stroke-opacity:1" />
    <path
       inkscape:original-d="m 126.18814,69.042033 c 0,0 13.4112,-3.43877 15.01595,-7.049479"
       inkscape:path-effect="#path-effect2123"
       id="path2121"
       d="m 126.1882,69.042018 c -0.008,-0.03212 -0.002,-0.0663 0.0168,-0.104729 0,0 0,0 0,0 0.0183,-0.03661 0.049,-0.07609 0.0914,-0.118225 l 0,0 0,0 0,0 c 0.084,-0.08349 0.21422,-0.177826 0.38562,-0.281528 l 0,0 c 0.33673,-0.203744 0.83566,-0.445881 1.45623,-0.717224 l 0,0 c 1.19525,-0.52268 2.8055,-1.137578 4.63855,-1.848596 0.90837,-0.353412 0.17667,-0.06864 1.08504,-0.422055 1.55614,-0.607806 2.7205,-1.088432 3.92199,-1.653655 0,0 0,0 0,0 0.83271,-0.39379 1.37774,-0.673957 1.93716,-1.013785 0.82083,-0.519779 1.34763,-0.949891 1.48311,-0.889676 0.20021,0.08898 0.13824,0.855534 -0.72504,1.786315 -0.47501,0.526848 -1.09363,1.037568 -1.89046,1.553736 0,0 0,0 0,0 -1.1396,0.741102 -2.47261,1.406758 -4.02551,2.012961 -0.38043,0.148506 -0.75696,0.286846 -1.12551,0.415862 -1.89874,0.667008 -3.64064,1.092848 -4.93053,1.306655 l 0,0 c -0.67958,0.11271 -1.23621,0.166707 -1.63518,0.163696 l 0,0 c -0.20258,-0.0015 -0.36377,-0.01771 -0.47917,-0.04862 l 0,0 0,0 0,0 c -0.0581,-0.01558 -0.10443,-0.03484 -0.13852,-0.05783 0,0 0,0 0,0 -0.0357,-0.02414 -0.0576,-0.05116 -0.066,-0.0833 z"
       style="fill:#000000;stroke:none;stroke-width:1.28381px;stroke-linecap:butt;stroke-linejoin:miter;stroke-opacity:1" />
    <path
       inkscape:original-d="m 124.35412,61.132862 c 0,0 6.76291,-7.04948 15.1879,-4.699652"
       inkscape:path-effect="#path-effect2127"
       id="path2125"
       d="m 124.35418,61.1328 c -0.2457,-0.33751 1.4096,-1.979298 3.96869,-4.004237 0,0 0,0 0,0 0.79869,-0.471242 1.70521,-0.898448 2.7029,-1.23402 2.38876,-0.803454 4.56662,-0.841106 6.17352,-0.545737 1.58071,0.290555 2.40872,0.847814 2.34273,1.084405 -0.0714,0.256091 -1.00944,0.192761 -2.42821,0.25297 -1.48633,0.06308 -3.27151,0.2791 -5.39001,0.986974 -0.87632,0.292814 -1.69257,0.631655 -2.44113,0.986934 0,0 0,0 0,0 -2.63197,1.754474 -4.68323,2.809615 -4.92849,2.472711 z"
       style="fill:#000000;stroke:none;stroke-width:1.28381px;stroke-linecap:butt;stroke-linejoin:miter;stroke-opacity:1" />
    <path
       inkscape:original-d="m 98.104852,71.334547 c 0,0 4.871588,-5.84591 10.430928,-3.610709"
       inkscape:path-effect="#path-effect2131"
       id="path2129"
       d="m 98.104922,71.334463 c -0.02282,-0.02003 -0.03929,-0.04559 -0.05072,-0.07784 0,0 0,0 0,0 -0.01045,-0.02984 -0.01591,-0.0648 -0.01634,-0.104679 0,0 0,0 0,0 -8.54e-4,-0.07924 0.01808,-0.177096 0.05674,-0.291546 l 0,0 0,0 c 0.07712,-0.226314 0.231381,-0.515093 0.4641,-0.844363 l 0,0 c 0.443716,-0.628624 1.180177,-1.412065 2.206999,-2.115605 0,0 0,0 0,0 0.49149,-0.338819 1.05172,-0.655404 1.67318,-0.913084 0.65618,-0.272075 1.31597,-0.451604 1.96114,-0.543162 0,0 0,0 0,0 2.82824,-0.391155 4.24831,0.999728 4.13576,1.279652 -0.15904,0.395573 -1.81134,0.0167 -3.79829,0.518977 0,0 0,0 0,0 -0.50273,0.123892 -1.01681,0.296337 -1.55716,0.523081 -0.50858,0.21341 -0.99669,0.456647 -1.4497,0.700098 0,0 0,10e-7 0,10e-7 -0.9395,0.509163 -1.754403,1.045754 -2.361993,1.409757 l 0,0 c -0.318664,0.191167 -0.590384,0.340774 -0.799791,0.424867 l -10e-7,0 0,0 c -0.107827,0.04367 -0.200979,0.07049 -0.277439,0.07784 0,0 0,0 0,0 -0.03866,0.0037 -0.07331,0.0025 -0.103656,-0.004 0,0 0,0 0,0 -0.03285,-0.0072 -0.06003,-0.01995 -0.08283,-0.03997 z"
       style="fill:#000000;stroke:none;stroke-width:1.28381px;stroke-linecap:butt;stroke-linejoin:miter;stroke-opacity:1" />
    <path
       sodipodi:nodetypes="csc"
       inkscape:original-d="m 113.68165,108.7012 c 0,0 42.9691,35.38386 42.9691,72.99227 0,37.6084 16.53472,36.95997 16.53472,36.95997"
       inkscape:path-effect="#path-effect2211"
       id="path2209"
       d="m 113.68166,108.70121 c 0.24959,-0.23944 9.06822,8.51543 22.11073,21.86716 5.14315,6.3647 10.69786,14.28119 15.01598,23.45558 0.95138,2.02048 1.84407,4.11573 2.6493,6.27409 2.71058,7.26553 4.13086,14.4428 4.10276,21.39543 -0.0361,8.37255 0.59515,15.17443 2.36026,21.42059 l 0,0 c 1.35329,4.7583 3.09139,8.20192 5.35689,10.81075 l 0,0 c 1.9414,2.23604 3.87832,3.37485 5.39821,3.97989 l 0,0 c 0.76691,0.30598 1.3711,0.46045 1.80733,0.55961 l 0,0 c 0.2236,0.0508 0.39573,0.0851 0.51393,0.11296 l 0,0 c 0,0 0,0 0,0 0.0594,0.0141 0.10602,0.0269 0.13726,0.0388 l 0,0 c 0,0 0,0 0,0 0.0165,0.0183 0.029,0.0276 0.0375,0.0324 0.008,0.005 0.0129,0.005 0.0136,0.005 0,0 0,0 0,0 0,0 0,0 0,0 0,0 0,0 0,0 0,0 0,0 0,0 0,0 0,0 0,0 0,0 0,0 0,0 6e-5,0 5e-5,0 5e-5,0 0,0 1e-5,0 -5e-5,1e-5 0,0 0,0 0,0 0,0 0,0 0,0 0,0 0,0 0,0 0,0 0,0 0,0 0,0 0,0 0,0 0,0 0,0 0,0 -7.2e-4,6e-5 -0.005,6.5e-4 -0.0134,0.006 -0.008,0.005 -0.0204,0.0148 -0.0362,0.0332 0,0 0,0 0,0 l 0,0 c -0.0325,0.0122 -0.0803,0.0235 -0.14437,0.0331 0,0 0,0 0,0 l 0,0 c -0.12467,0.0188 -0.30497,0.0302 -0.54378,0.0236 l 0,0 c -0.45849,-0.0127 -1.1192,-0.0901 -1.94777,-0.32904 l 0,0 c -1.63589,-0.47312 -3.81651,-1.55306 -5.96625,-3.81905 l 0,0 c -2.49477,-2.62964 -4.50075,-6.2185 -5.9951,-11.07759 l 0,0 c -1.96864,-6.36408 -2.76139,-13.37548 -2.79747,-21.82985 -0.0281,-6.70104 -1.4484,-13.63275 -4.09328,-20.72011 -0.78553,-2.10494 -1.65344,-4.15479 -2.57526,-6.13708 -4.17305,-8.97001 -9.55467,-16.8149 -14.51322,-23.19194 -12.75073,-13.53457 -21.12718,-22.70374 -20.87765,-22.94313 z"
       style="opacity:1;fill:#000000;stroke:none;stroke-width:1.28381px;stroke-linecap:butt;stroke-linejoin:miter;stroke-opacity:1" />
    <path
       sodipodi:nodetypes="cssc"
       inkscape:original-d="m 83.663546,48.57868 c 3.954366,-28.548223 15.222846,-32.345481 19.467274,-34.712718 6.74028,-3.759244 17.47363,-5.9809074 26.85544,-0.938181 9.38182,5.042729 20.1709,25.799992 17.12182,33.539991"
       inkscape:path-effect="#path-effect887"
       id="path885"
       d="m 83.663546,48.57868 c -0.261871,-0.03627 -0.22224,-3.022964 0.664626,-8.172271 0.821336,-4.768829 2.712404,-12.88605 8.007502,-19.762359 1.561688,-2.010227 3.493388,-3.899593 5.800244,-5.456061 1.467997,-0.982017 2.903412,-1.677599 4.342932,-2.491008 3.76963,-2.130407 8.13255,-3.5371168 12.76648,-3.9551995 0.0691,-0.00623 0.13819,-0.012242 0.20727,-0.018023 5.4391,-0.4630579 10.74212,0.6351264 15.16037,3.0380596 3.1137,1.725387 5.49469,4.281039 7.3848,6.664651 0,10e-7 0,2e-6 0,3e-6 2.62208,3.272571 4.61782,6.672436 6.13247,9.78615 1.91112,3.916237 3.02421,7.285718 3.60354,10.295461 1.01441,4.989649 -0.38249,8.05551 -0.6257,7.959697 -0.24322,-0.09581 0.50922,-2.85387 -0.76497,-7.633923 -0.79385,-2.848046 -2.0361,-5.944048 -4.05583,-9.673879 -1.59706,-2.939862 -3.62423,-6.138167 -6.18849,-9.171707 0,-1e-6 0,-2e-6 0,-3e-6 -1.89083,-2.213673 -4.09015,-4.522254 -6.73924,-5.894524 -3.95282,-2.096541 -8.74697,-3.033781 -13.67622,-2.625237 -0.0632,0.0053 -0.12647,0.01088 -0.18973,0.01663 -4.24012,0.385016 -8.2471,1.645964 -11.71081,3.549808 -1.54962,0.853732 -2.92959,1.48841 -4.209661,2.324884 -2.079909,1.346479 -3.862497,3.017306 -5.331983,4.805026 -5.085582,6.132146 -7.312467,13.979189 -8.48804,18.546576 -1.279567,4.971428 -1.827689,7.903524 -2.08956,7.867251 z"
       style="fill:#000000;fill-opacity:1;stroke:none;stroke-width:0.928752px;stroke-linecap:butt;stroke-linejoin:miter;stroke-opacity:1" />
    <path
       inkscape:original-d="m 84.021312,50.34921 c 0,0 28.095868,-32.506333 51.244058,-13.102043"
       inkscape:path-effect="#path-effect891"
       id="path889"
       d="m 84.021325,50.349195 c -0.40386,-0.494904 6.47482,-6.796227 16.201295,-14.926416 0,-10e-7 0,-10e-7 0,-2e-6 2.09598,-1.246489 4.41654,-2.423786 6.91342,-3.377687 3.49559,-1.335448 6.94338,-2.082648 10.29409,-2.22871 3.53424,-0.133859 6.69855,0.470665 9.31314,1.430825 6.14355,2.268345 8.79014,5.680222 8.52211,5.999967 -0.26803,0.319745 -3.401,-2.415749 -9.16687,-4.014139 -2.45058,-0.684341 -5.33632,-1.062333 -8.52924,-0.833801 -3.01621,0.19693 -6.11791,0.91754 -9.34462,2.148095 -2.30005,0.877157 -4.48677,1.946145 -6.49864,3.059783 0,0 0,2e-6 0,2e-6 -9.772824,7.782469 -17.301085,13.23667 -17.704685,12.742083 z"
       style="fill:#000000;stroke:none;stroke-width:0.958668px;stroke-linecap:butt;stroke-linejoin:miter;stroke-opacity:1" />
  </g>
</svg>
