<?xml version="1.0" encoding="UTF-8" standalone="no"?>
<svg
   xmlns:dc="http://purl.org/dc/elements/1.1/"
   xmlns:cc="http://creativecommons.org/ns#"
   xmlns:rdf="http://www.w3.org/1999/02/22-rdf-syntax-ns#"
   xmlns:svg="http://www.w3.org/2000/svg"
   xmlns="http://www.w3.org/2000/svg"
   xmlns:sodipodi="http://sodipodi.sourceforge.net/DTD/sodipodi-0.dtd"
   xmlns:inkscape="http://www.inkscape.org/namespaces/inkscape"
   sodipodi:docname="toilet.svg"
   inkscape:version="1.0 (4035a4fb49, 2020-05-01)"
   width="256.0px"
   height="256.0px"
   viewBox="0 0 256.0 256.0"
   version="1.1"
   id="SVGRoot">
  <defs
     id="defs1402">
    <inkscape:path-effect
       fuse_tolerance="0"
       hide_knot="false"
       vertical_pattern="false"
       prop_units="false"
       tang_offset="0"
       normal_offset="0"
       spacing="0"
       scale_y_rel="false"
       prop_scale="0.296575"
       copytype="single_stretched"
       pattern="M 0,5 C 0,2.24 2.24,0 5,0 7.76,0 10,2.24 10,5 10,7.76 7.76,10 5,10 2.24,10 0,7.76 0,5 Z"
       lpeversion="1"
       is_visible="true"
       id="path-effect2059"
       effect="skeletal" />
    <inkscape:path-effect
       fuse_tolerance="0"
       hide_knot="false"
       vertical_pattern="false"
       prop_units="false"
       tang_offset="0"
       normal_offset="0"
       spacing="0"
       scale_y_rel="false"
       prop_scale="0.296575"
       copytype="single_stretched"
       pattern="M 0,5 C 0,2.24 2.24,0 5,0 7.76,0 10,2.24 10,5 10,7.76 7.76,10 5,10 2.24,10 0,7.76 0,5 Z"
       lpeversion="1"
       is_visible="true"
       id="path-effect2055"
       effect="skeletal" />
    <inkscape:path-effect
       fuse_tolerance="0"
       hide_knot="false"
       vertical_pattern="false"
       prop_units="false"
       tang_offset="0"
       normal_offset="0"
       spacing="0"
       scale_y_rel="false"
       prop_scale="0.296575"
       copytype="single_stretched"
       pattern="M 0,5 C 0,2.24 2.24,0 5,0 7.76,0 10,2.24 10,5 10,7.76 7.76,10 5,10 2.24,10 0,7.76 0,5 Z"
       lpeversion="1"
       is_visible="true"
       id="path-effect2051"
       effect="skeletal" />
    <inkscape:path-effect
       fuse_tolerance="0"
       hide_knot="false"
       vertical_pattern="false"
       prop_units="false"
       tang_offset="0"
       normal_offset="0"
       spacing="0"
       scale_y_rel="false"
       prop_scale="0.296575"
       copytype="single_stretched"
       pattern="M 0,5 C 0,2.24 2.24,0 5,0 7.76,0 10,2.24 10,5 10,7.76 7.76,10 5,10 2.24,10 0,7.76 0,5 Z"
       lpeversion="1"
       is_visible="true"
       id="path-effect2031"
       effect="skeletal" />
    <inkscape:path-effect
       fuse_tolerance="0"
       hide_knot="false"
       vertical_pattern="false"
       prop_units="false"
       tang_offset="0"
       normal_offset="0"
       spacing="0"
       scale_y_rel="false"
       prop_scale="0.296575"
       copytype="single_stretched"
       pattern="M 0,5 C 0,2.24 2.24,0 5,0 7.76,0 10,2.24 10,5 10,7.76 7.76,10 5,10 2.24,10 0,7.76 0,5 Z"
       lpeversion="1"
       is_visible="true"
       id="path-effect2027"
       effect="skeletal" />
    <inkscape:path-effect
       fuse_tolerance="0"
       hide_knot="false"
       vertical_pattern="false"
       prop_units="false"
       tang_offset="0"
       normal_offset="0"
       spacing="0"
       scale_y_rel="false"
       prop_scale="0.296575"
       copytype="single_stretched"
       pattern="M 0,5 C 0,2.24 2.24,0 5,0 7.76,0 10,2.24 10,5 10,7.76 7.76,10 5,10 2.24,10 0,7.76 0,5 Z"
       lpeversion="1"
       is_visible="true"
       id="path-effect2023"
       effect="skeletal" />
    <inkscape:path-effect
       fuse_tolerance="0"
       hide_knot="false"
       vertical_pattern="false"
       prop_units="false"
       tang_offset="0"
       normal_offset="0"
       spacing="0"
       scale_y_rel="false"
       prop_scale="0.296575"
       copytype="single_stretched"
       pattern="M 0,5 C 0,2.24 2.24,0 5,0 7.76,0 10,2.24 10,5 10,7.76 7.76,10 5,10 2.24,10 0,7.76 0,5 Z"
       lpeversion="1"
       is_visible="true"
       id="path-effect2019"
       effect="skeletal" />
    <inkscape:path-effect
       fuse_tolerance="0"
       hide_knot="false"
       vertical_pattern="false"
       prop_units="false"
       tang_offset="0"
       normal_offset="0"
       spacing="0"
       scale_y_rel="false"
       prop_scale="0.296575"
       copytype="single_stretched"
       pattern="M 0,5 C 0,2.24 2.24,0 5,0 7.76,0 10,2.24 10,5 10,7.76 7.76,10 5,10 2.24,10 0,7.76 0,5 Z"
       lpeversion="1"
       is_visible="true"
       id="path-effect2015"
       effect="skeletal" />
    <inkscape:path-effect
       fuse_tolerance="0"
       hide_knot="false"
       vertical_pattern="false"
       prop_units="false"
       tang_offset="0"
       normal_offset="0"
       spacing="0"
       scale_y_rel="false"
       prop_scale="0.296575"
       copytype="single_stretched"
       pattern="M 0,5 C 0,2.24 2.24,0 5,0 7.76,0 10,2.24 10,5 10,7.76 7.76,10 5,10 2.24,10 0,7.76 0,5 Z"
       lpeversion="1"
       is_visible="true"
       id="path-effect2011"
       effect="skeletal" />
    <inkscape:path-effect
       fuse_tolerance="0"
       hide_knot="false"
       vertical_pattern="false"
       prop_units="false"
       tang_offset="0"
       normal_offset="0"
       spacing="0"
       scale_y_rel="false"
       prop_scale="0.296575"
       copytype="single_stretched"
       pattern="M 0,5 C 0,2.24 2.24,0 5,0 7.76,0 10,2.24 10,5 10,7.76 7.76,10 5,10 2.24,10 0,7.76 0,5 Z"
       lpeversion="1"
       is_visible="true"
       id="path-effect2007"
       effect="skeletal" />
    <inkscape:path-effect
       fuse_tolerance="0"
       hide_knot="false"
       vertical_pattern="false"
       prop_units="false"
       tang_offset="0"
       normal_offset="0"
       spacing="0"
       scale_y_rel="false"
       prop_scale="0.296575"
       copytype="single_stretched"
       pattern="M 0,5 C 0,2.24 2.24,0 5,0 7.76,0 10,2.24 10,5 10,7.76 7.76,10 5,10 2.24,10 0,7.76 0,5 Z"
       lpeversion="1"
       is_visible="true"
       id="path-effect2003"
       effect="skeletal" />
    <inkscape:path-effect
       fuse_tolerance="0"
       hide_knot="false"
       vertical_pattern="false"
       prop_units="false"
       tang_offset="0"
       normal_offset="0"
       spacing="0"
       scale_y_rel="false"
       prop_scale="0.296575"
       copytype="single_stretched"
       pattern="M 0,5 C 0,2.24 2.24,0 5,0 7.76,0 10,2.24 10,5 10,7.76 7.76,10 5,10 2.24,10 0,7.76 0,5 Z"
       lpeversion="1"
       is_visible="true"
       id="path-effect1999"
       effect="skeletal" />
    <inkscape:path-effect
       fuse_tolerance="0"
       hide_knot="false"
       vertical_pattern="false"
       prop_units="false"
       tang_offset="0"
       normal_offset="0"
       spacing="0"
       scale_y_rel="false"
       prop_scale="0.296575"
       copytype="single_stretched"
       pattern="M 0,5 C 0,2.24 2.24,0 5,0 7.76,0 10,2.24 10,5 10,7.76 7.76,10 5,10 2.24,10 0,7.76 0,5 Z"
       lpeversion="1"
       is_visible="true"
       id="path-effect1995"
       effect="skeletal" />
  </defs>
  <sodipodi:namedview
     inkscape:snap-global="false"
     inkscape:window-maximized="1"
     inkscape:window-y="-8"
     inkscape:window-x="-8"
     inkscape:window-height="1017"
     inkscape:window-width="1920"
     showgrid="true"
     inkscape:document-rotation="0"
     inkscape:current-layer="layer1"
     inkscape:document-units="px"
     inkscape:cy="189.21476"
     inkscape:cx="148.0646"
     inkscape:zoom="1.4"
     inkscape:pageshadow="2"
     inkscape:pageopacity="0.0"
     borderopacity="1.0"
     bordercolor="#666666"
     pagecolor="#ffffff"
     id="base">
    <inkscape:grid
       type="xygrid"
       id="grid1972" />
  </sodipodi:namedview>
  <metadata
     id="metadata1405">
    <rdf:RDF>
      <cc:Work
         rdf:about="">
        <dc:format>image/svg+xml</dc:format>
        <dc:type
           rdf:resource="http://purl.org/dc/dcmitype/StillImage" />
        <dc:title></dc:title>
      </cc:Work>
    </rdf:RDF>
  </metadata>
  <g
     style="opacity:0.37581699"
     id="layer1"
     inkscape:groupmode="layer"
     inkscape:label="Layer 1">
    <path
       inkscape:original-d="m 45,19 c 0,0 -14,-2 -13,13 1,15 98,3 108,-2 10,-5 20.35714,-2.142857 9.82143,-15.714286 C 139.28571,0.71428572 121.96429,7.5 104.28571,9.6428572 86.607143,11.785714 45,19 45,19 Z"
       inkscape:path-effect="#path-effect1995"
       id="path1993"
       d="m 44.999942,18.999992 c -8.3e-4,0.0066 -0.0055,0.01257 -0.01408,0.01815 -0.0079,0.0051 -0.01907,0.0098 -0.03347,0.01408 -0.02828,0.0085 -0.06939,0.01566 -0.122704,0.0219 l 0,0 0,10e-7 0,0 c -0.10212,0.01201 -0.254035,0.02108 -0.448161,0.03093 l -10e-7,0 c -0.357494,0.01815 -0.893913,0.0401 -1.557274,0.105548 l 0,0 c -1.068383,0.106205 -2.808687,0.352008 -4.531592,1.128693 l 0,0 c -1.482611,0.667849 -3.10137,1.83489 -4.142565,3.659742 l 0,0 c -1.232508,2.104443 -1.587807,4.784167 -1.343536,7.967192 l 0,0 c 0.03913,0.685631 0.463002,1.377547 1.052611,1.940288 l 0,0 c 0.777725,0.73492 1.819087,1.23244 2.994578,1.691641 l 0,0 c 3.327864,1.274002 6.905376,1.715912 11.138356,2.088975 h 0 c 5.019173,0.429512 10.185164,0.505966 15.970531,0.403619 l 0,0 c 5.907452,-0.105503 12.015965,-0.41467 18.571685,-0.898307 l 0,0 c 0,0 1e-5,-1e-6 1e-5,-1e-6 11.346629,-0.837551 23.532822,-2.128166 36.293442,-4.086767 l 0,0 c 4.4104,-0.677397 8.9245,-1.430438 13.39013,-2.395579 l 0,0 c 1.52615,-0.330209 3.04448,-0.681207 4.52619,-1.104396 l 0,0 c 1e-5,-1e-6 1e-5,-2e-6 1e-5,-3e-6 0.9599,-0.281443 1.85372,-0.532482 2.59274,-0.911989 0.30313,-0.150623 0.60809,-0.29522 0.91465,-0.43437 2.1683,-0.984223 4.40234,-1.689206 6.56758,-2.31702 1.92006,-0.585027 3.6966,-0.93943 4.99913,-1.810364 0.40305,-0.287658 0.73762,-0.555 0.82298,-0.824499 0.16343,-0.250747 0.12937,-0.713921 0.0556,-1.226957 l 0,0 c -0.41692,-2.384372 -2.30273,-4.569647 -4.02553,-6.881861 l 0,0 c -2.22415,-2.872073 -5.15915,-5.111758 -8.41389,-6.3064053 l 0,0 C 136.96004,7.634317 133.30972,7.3622881 129.7793,7.4548405 l 0,0 c -8.86282,0.248879 -17.27743,2.4985471 -25.34473,3.4160885 l 0,0 -10e-6,10e-7 0,0 c -5.757628,0.654667 -11.656169,1.49566 -16.697844,2.214618 -6.975185,0.99481 -14.276972,2.08082 -19.572745,2.862855 l 0,0 -6e-6,0 0,0 c -6.906983,1.019969 -12.305292,1.809862 -16.292908,2.352449 l 0,0 c -2.15852,0.293705 -3.839425,0.505975 -4.997062,0.627294 l 0,0 c -0.600671,0.06295 -1.061272,0.101513 -1.375308,0.114444 l 0,0 c -0.15966,0.0066 -0.281551,0.0065 -0.364853,-2.88e-4 l 0,0 c 0,0 0,-1e-6 0,-1e-6 -0.04564,-0.02427 -0.07874,-0.03493 -0.100651,-0.03947 -0.02171,-0.0045 -0.03238,-0.003 -0.03316,-0.0028 0,0 0,0 0,0 0,0 -10e-7,0 -10e-7,0 -2.6e-5,4e-6 -1.8e-5,3e-6 -1.8e-5,3e-6 0,0 -8e-6,1e-6 1.8e-5,-4e-6 0,0 0,0 0,0 0,0 0,0 0,0 7.85e-4,-1.47e-4 0.01133,-0.0023 0.03028,-0.01383 0.0191,-0.01165 0.0467,-0.03282 0.08152,-0.07101 0,0 0,0 0,0 l 0,0 c 0.0762,-0.03442 0.190995,-0.07538 0.34368,-0.122741 l 0,0 c 0.300433,-0.09319 0.747097,-0.211004 1.334642,-0.352261 l 0,0 c 1.132992,-0.272394 2.787144,-0.631362 4.923192,-1.067489 l 0,0 c 3.856674,-0.787436 9.3926,-1.848327 16.179358,-3.075982 l 0,0 c 2e-6,0 4e-6,-10e-7 6e-6,-10e-7 5.527641,-0.999901 12.290941,-2.18542 19.514067,-3.366696 l 0,0 C 92.463041,10.102941 98.312932,9.1641541 104.13684,8.4147866 l 0,2e-7 10e-6,-1.3e-6 0,0 c 7.83431,-1.0099254 16.24117,-3.3562236 25.54813,-3.7267689 l 0,0 c 3.74017,-0.1553173 7.74016,0.1398649 11.55322,1.5067133 l 0,0 c 3.80343,1.3910201 7.18605,3.9237511 9.73344,7.1980591 l 0,0 c 1.77079,2.188039 3.84815,4.754366 4.60728,8.073497 0.21922,0.908207 0.18698,1.978762 -0.25904,3.053177 -0.47767,0.954715 -1.17635,1.643144 -1.91488,2.082867 -1.92511,1.185675 -3.95808,1.660681 -5.75421,2.16285 -2.12376,0.626975 -4.22752,1.283935 -6.17271,2.170778 -0.2751,0.125422 -0.54683,0.255339 -0.81493,0.390332 -1.06893,0.524464 -2.13333,0.84119 -3.10697,1.110472 -1e-5,10e-7 -1e-5,2e-6 -1e-5,3e-6 l 0,0 c -1.57827,0.448381 -3.15932,0.813312 -4.71549,1.146574 l 0,0 c -4.56026,0.977695 -9.13352,1.729335 -13.57472,2.393485 l 0,0 c -12.85644,1.923925 -25.131426,3.133563 -36.550298,3.850732 l 0,0 -9e-6,0 0,0 c -6.596303,0.414574 -12.768449,0.644147 -18.729077,0.65638 l 0,0 C 58.15743,40.496818 52.895308,40.317938 47.789138,39.770367 43.521811,39.323132 39.740834,38.730845 36.1814,37.273405 l 0,0 c -1.273185,-0.51197 -2.495745,-1.175867 -3.504933,-2.151133 l 0,0 c -0.840379,-0.805861 -1.397975,-1.891214 -1.483034,-3.0685 l 0,-1e-6 c -0.194179,-3.392507 0.388647,-6.387764 1.86692,-8.737944 l 0,0 c 1.318297,-2.052427 3.22996,-3.264328 4.873084,-3.875371 l 0,0 c 1.936391,-0.718663 3.754032,-0.812183 4.870974,-0.786299 l 0,0 c 0.69265,0.01555 1.232448,0.08007 1.595894,0.146252 l 0,0 c 0.196818,0.03584 0.344621,0.07271 0.445081,0.1067 l 0,0 0,0 0,0 c 0.0516,0.01749 0.09018,0.03405 0.116043,0.04937 0.0131,0.0078 0.02286,0.01517 0.02931,0.02218 0.007,0.0077 0.01003,0.01469 0.0092,0.02133 z"
       style="fill:#000000;stroke:none;stroke-width:1px;stroke-linecap:butt;stroke-linejoin:miter;stroke-opacity:1" />
    <path
       inkscape:original-d="m 39.821429,20.892857 c 0,0 66.964281,11.071429 106.071431,-5.357143"
       inkscape:path-effect="#path-effect1999"
       id="path1997"
       d="m 39.821441,20.892859 c 0.06085,-0.670702 16.317225,0.233134 38.474177,2.063014 0,0 4e-6,1e-6 4e-6,1e-6 4.759424,0.117494 9.799362,0.161298 14.999075,0.06286 6.927193,-0.131142 13.330343,-0.499515 19.386463,-1.089063 10.36372,-1.013401 17.72785,-2.40924 23.98078,-4.002227 5.78568,-1.473953 9.10938,-2.681068 9.23093,-2.391732 0.12155,0.289337 -3.00121,2.044473 -8.74906,4.008348 -6.07544,2.075798 -13.82673,3.908808 -24.16587,5.13154 -6.12848,0.727199 -12.66454,1.173363 -19.675298,1.305269 -5.274791,0.09924 -10.375,0.01228 -15.182462,-0.185689 0,0 -4e-6,0 -4e-6,0 C 55.925832,23.601122 39.760582,21.563662 39.821441,20.892859 Z"
       style="fill:#000000;stroke:none;stroke-width:1px;stroke-linecap:butt;stroke-linejoin:miter;stroke-opacity:1" />
    <path
       inkscape:original-d="m 36.428572,38.75 c 0,0 2.857142,73.39286 13.928571,75.35714 11.071429,1.96429 38.75,9.82143 56.607147,3.03572 17.85714,-6.78572 31.25,-5.35715 32.5,-16.07143 1.25,-10.714287 9.46428,-72.142859 9.46428,-72.142859"
       inkscape:path-effect="#path-effect2003"
       id="path2001"
       d="m 36.428572,38.750011 c 0.0076,-3.04e-4 0.01528,0.0041 0.02321,0.01323 0.0077,0.0088 0.01551,0.02207 0.02352,0.03968 0,0 0,0 0,0 0.01593,0.03506 0.03254,0.08748 0.04984,0.156983 0,0 0,10e-7 0,10e-7 l 0,0 c 0.03425,0.137619 0.07131,0.342719 0.111289,0.61272 0,0 10e-7,10e-7 10e-7,10e-7 l 0,0 c 0.07823,0.528356 0.168502,1.311903 0.272016,2.327774 l 0,0 c 0.198007,1.943209 0.44565,4.75253 0.765922,8.322132 l 1e-6,2e-6 c 0.525587,5.857485 1.372699,15.36367 2.621248,25.363218 l 0,0 c 0.527711,4.225953 1.166505,8.87752 1.975621,13.632771 l 0,0 10e-7,8e-6 0,0 c 0.6528,3.833338 1.433428,7.925485 2.49526,11.970129 l 0,0 c 0.763756,2.88263 1.62113,5.86612 3.014518,8.49569 l 0,0 c 0.470826,0.87458 0.961286,1.69149 1.57572,2.29777 l 0,0 c 0.447016,0.4059 0.872952,0.74935 1.241513,0.76606 l 0,0 c 3.776206,0.65253 7.208071,1.44661 11.049279,2.21916 l 0,0 c 4.738725,0.95229 9.670681,1.85133 14.656378,2.48551 5.14772,0.65331 10.464494,1.0655 15.786488,0.87307 0.927339,-0.0349 1.856695,-0.0867 2.784627,-0.15945 4.04731,-0.31741 7.951669,-1.02563 11.565109,-2.40298 7.71694,-2.91185 15.49941,-4.30726 22.57032,-6.53557 2.46745,-0.80417 4.76437,-1.64421 6.45186,-3.1293 1.50903,-1.25652 2.4091,-3.2083 2.65807,-5.18398 0.65384,-5.352563 1.43985,-10.933409 2.11045,-15.791034 0,0 0,-8e-6 0,-8e-6 1.22613,-8.882808 2.40918,-17.185686 3.44014,-24.259656 2.90721,-19.858059 4.87137,-31.962567 5.25647,-31.935508 0,0 0,0 0,0 0.001,1.59e-4 0.001,1.55e-4 0.001,1.38e-4 -1.2e-4,-1.6e-5 -2.4e-4,-4.3e-5 0.001,1.63e-4 0,0 0,0 0,0 0.37875,0.07481 -0.88942,12.272064 -3.27388,32.198557 -0.87407,7.344626 -1.82863,15.175101 -2.94732,24.318857 0,2e-6 0,5e-6 0,8e-6 -0.58833,4.808882 -1.31542,10.520142 -1.9003,15.782063 -0.28223,2.57722 -1.45961,5.1313 -3.53055,6.97003 -2.19979,1.87588 -4.82548,2.92865 -7.40416,3.73454 -7.27846,2.35009 -15.02852,3.77337 -22.38504,6.58944 -3.95299,1.49789 -8.132638,2.27584 -12.381879,2.60686 -0.974302,0.0759 -1.945815,0.12782 -2.911247,0.15995 -5.545933,0.19242 -11.020308,-0.23934 -16.267085,-0.92939 -5.089016,-0.66785 -10.082439,-1.6044 -14.852555,-2.5982 l 0,0 c -3.76971,-0.78467 -7.404281,-1.64766 -10.959647,-2.29535 -1.172539,-0.25678 -2.08555,-0.87008 -2.71951,-1.57306 l 0,0 c -0.881191,-0.92793 -1.515281,-1.96453 -2.016116,-2.96405 l 0,0 c -1.5153,-2.98066 -2.401539,-6.15385 -3.124335,-9.10009 l 0,0 C 41.221594,97.653704 40.491224,93.483315 39.901019,89.600351 l 0,0 -10e-7,-8e-6 0,0 C 39.166808,84.774796 38.619987,80.087921 38.189385,75.823499 37.152305,65.554171 36.654528,56.380949 36.423417,50.302356 l 0,-2e-6 C 36.286919,46.71315 36.233924,43.890312 36.238434,41.933652 l 0,0 c 0.0024,-1.025056 0.02062,-1.809508 0.05235,-2.345839 l 0,0 c 0,0 0,-10e-7 0,-10e-7 0.01615,-0.272999 0.03574,-0.48029 0.05854,-0.620635 l 0,0 c 0,0 0,0 0,0 0.0115,-0.07076 0.0238,-0.124374 0.03687,-0.160645 0,0 0,-10e-7 0,-10e-7 0.0066,-0.01822 0.01333,-0.03205 0.02028,-0.04147 0.0072,-0.0097 0.01451,-0.01475 0.0221,-0.01505 z"
       style="fill:#000000;stroke:none;stroke-width:1px;stroke-linecap:butt;stroke-linejoin:miter;stroke-opacity:1" />
    <path
       inkscape:original-d="m 73.035714,43.214286 c 0,0 13.392858,-4.107143 14.821429,-1.964286 1.428571,2.142857 5,6.25 0.535714,7.857143 C 83.928572,50.714286 73.75,46.785714 73.214286,45"
       inkscape:path-effect="#path-effect2007"
       id="path2005"
       d="m 73.035771,43.214269 c -0.112426,-0.432978 2.457614,-1.514459 6.629017,-2.878302 0,0 10e-7,0 10e-7,0 1.436481,-0.405414 3.256953,-0.859257 5.201803,-1.03514 0.63736,-0.06386 1.382681,-0.09017 2.201145,0.03556 0.506816,-0.0175 1.245201,0.28795 1.981396,1.118956 0.810001,1.131142 1.997693,2.570321 2.687805,4.442801 0.08247,0.201745 0.150906,0.418281 0.201723,0.647303 0.167615,0.755401 0.139448,1.627345 -0.182413,2.529618 -0.713085,1.385155 -1.851146,2.123068 -2.872087,2.396814 -1.748793,0.566684 -3.443067,0.481833 -4.814683,0.265352 -1.920141,-0.267744 -3.648144,-0.793261 -5.076997,-1.345149 -1.771461,-0.679045 -3.121438,-1.405355 -4.150938,-2.13724 -0.57101,-0.403701 -0.987464,-0.77614 -1.291692,-1.146487 0,0 0,-10e-7 0,-10e-7 -0.447098,-0.490562 -0.487708,-1.062719 -0.335568,-1.10836 0.0147,-0.0044 0.481714,0.151818 0.910252,0.401841 0,0 1e-6,0 1e-6,0 0.419871,0.201448 0.745282,0.333117 1.402224,0.585516 1.135847,0.431217 2.363749,0.829765 4.141473,1.272358 1.385139,0.340359 3.010454,0.674454 4.688629,0.792129 1.245547,0.06379 2.557988,0.10796 3.544691,-0.309425 0.590296,-0.306174 1.147457,-0.547693 1.129029,-0.811892 0.10386,-0.111374 0.06119,-0.378386 -0.01882,-0.730899 -0.02424,-0.106809 -0.05168,-0.220588 -0.07905,-0.338831 -0.359724,-1.183132 -1.419411,-2.459504 -2.267552,-3.816128 0.249241,0.135946 0.19579,0.241002 -0.10904,0.05796 -0.429419,-0.104924 -0.964884,-0.103391 -1.535067,-0.09824 -1.647386,0.03047 -3.422784,0.302008 -4.839199,0.511374 0,0 -2e-6,0 -2e-6,0 -4.265244,0.827032 -7.033704,1.131276 -7.146074,0.698514 z"
       style="fill:#000000;stroke:none;stroke-width:1px;stroke-linecap:butt;stroke-linejoin:miter;stroke-opacity:1" />
    <path
       inkscape:original-d="m 109.85409,119.198 c 0,0 63.13453,30.05204 97.73226,15.40483 34.59772,-14.64722 -13.63706,-25.50635 -13.63706,-25.50635 0,0 -37.62818,-9.343916 -55.30585,-2.77792"
       inkscape:path-effect="#path-effect2011"
       id="path2009"
       d="m 109.8541,119.19801 c 0.16062,-0.43694 14.31069,4.32209 36.26204,12.10306 0,0 0,0 0,0 9.03352,2.43519 20.09223,4.91811 31.71001,5.66863 4.9983,0.3249 10.22836,0.33921 15.46345,-0.27857 4.62484,-0.54838 9.3227,-1.58546 13.71871,-3.45366 0.51236,-0.21968 1.02398,-0.44215 1.53164,-0.66932 2.75362,-1.23219 5.31982,-2.57257 7.43349,-4.38911 0.78298,-0.67663 1.47626,-1.37538 1.95364,-2.14959 0.35451,-0.58137 0.61327,-1.18063 0.66597,-1.75179 0.0644,-0.504 -0.0188,-1.05128 -0.20569,-1.56215 -0.20525,-0.57567 -0.57896,-1.13601 -1.02269,-1.67929 -1.12194,-1.3711 -2.70012,-2.44545 -4.34278,-3.43704 -3.90352,-2.32779 -8.27404,-3.91735 -12.45056,-5.26084 -0.0147,-0.004 -6.90123,-1.95289 -6.91595,-1.95704 -4e-5,-10e-6 -4e-5,-10e-6 -4e-5,-10e-6 -7.58028,-1.4459 -14.60244,-2.80368 -20.91626,-4.0436 -7.06102,-1.0113 -12.77193,-1.47894 -17.99771,-1.55345 -10.27363,-0.1312 -15.99513,1.8111 -16.09793,1.53432 -0.1028,-0.27678 5.68369,-2.84174 16.08517,-3.13751 5.29529,-0.15766 11.19215,0.12496 18.35331,0.9679 6.38516,1.08583 13.48992,2.31534 21.16127,3.66271 0,0 0,0 0,0 -0.0136,-0.004 7.11408,1.90538 7.10044,1.90174 4.2912,1.30957 8.87834,2.93959 13.13406,5.41051 1.78698,1.02551 3.61929,2.29473 5.11569,4.03947 0.61045,0.7112 1.15345,1.55097 1.53049,2.52173 0.34715,0.90745 0.49122,1.90659 0.38532,2.91979 -0.13619,1.11222 -0.53526,2.12587 -1.08877,2.99038 -0.71072,1.11766 -1.59688,2.04553 -2.53046,2.83211 -2.45829,2.08066 -5.26284,3.58053 -8.13852,4.8581 -0.53025,0.23558 -1.06023,0.46244 -1.58705,0.6827 -4.73443,1.99724 -9.70416,3.09089 -14.53962,3.63236 -5.47037,0.61552 -10.87393,0.56643 -15.99596,0.18107 -11.94985,-0.90361 -23.13664,-3.60415 -32.22404,-6.28832 0,0 -1e-5,-1e-5 -1e-5,-1e-5 -21.84164,-8.31741 -35.71131,-13.85827 -35.55066,-14.29528 z"
       style="fill:#000000;stroke:none;stroke-width:1px;stroke-linecap:butt;stroke-linejoin:miter;stroke-opacity:1" />
    <path
       inkscape:original-d="m 108.5914,121.72338 c 0,0 40.15356,17.1726 66.9226,15.65737"
       inkscape:path-effect="#path-effect2015"
       id="path2013"
       d="m 108.59142,121.72339 c 0.009,-0.0202 0.0273,-0.0359 0.0561,-0.0473 0,0 0,0 0,0 0.0281,-0.0111 0.0657,-0.0181 0.11261,-0.0211 0,0 0,0 0,0 0.0936,-0.006 0.22469,0.004 0.39131,0.0296 l 0,0 0,0 c 0.33129,0.0502 0.80717,0.16095 1.41091,0.32363 l 0,0 c 1.18784,0.32008 2.93026,0.85874 5.05702,1.53277 l 0,0 c 4.30065,1.36292 9.94537,3.20726 16.8276,5.22263 2.9353,0.85924 6.05075,1.738 9.28078,2.58284 4.36921,1.14281 8.41633,2.08439 12.29656,2.87264 0,0 1e-5,0 1e-5,0 6.63594,1.34292 11.18066,1.96905 15.39523,2.37909 3.80814,0.3705 6.07681,0.47008 6.09449,0.78251 0.0177,0.31243 -2.24108,0.79443 -6.15223,0.90001 -4.1267,0.1114 -9.25244,-0.23667 -15.84049,-1.34966 0,0 0,0 0,0 -3.95543,-0.6654 -8.12981,-1.56103 -12.54394,-2.71508 -3.27881,-0.85723 -6.42015,-1.78649 -9.36499,-2.72974 -6.82869,-2.18647 -12.55923,-4.44187 -16.63561,-6.25057 l 0,0 c -2.07187,-0.91926 -3.68347,-1.70968 -4.78253,-2.31988 l 0,0 c -0.55099,-0.30592 -0.96597,-0.56277 -1.2375,-0.76441 l 0,0 0,0 c -0.13583,-0.1009 -0.23504,-0.18749 -0.29651,-0.25896 0,0 0,0 0,0 -0.0308,-0.0358 -0.052,-0.0677 -0.0636,-0.0957 0,0 0,0 0,0 -0.0119,-0.0287 -0.0137,-0.0532 -0.005,-0.0734 z"
       style="fill:#000000;stroke:none;stroke-width:1px;stroke-linecap:butt;stroke-linejoin:miter;stroke-opacity:1" />
    <path
       sodipodi:nodetypes="cssc"
       inkscape:original-d="m 106.57109,128.28937 c 0,0 34.76228,19.55169 62.45089,19.06029 18.32908,-0.32529 40.83805,1.86493 48.16082,-6.93846 7.47586,-8.98743 7.18698,-8.88023 4.54568,-13.63706"
       inkscape:path-effect="#path-effect2023"
       id="path2021"
       d="m 106.57111,128.28938 c 0.007,-0.0134 0.0236,-0.0215 0.0487,-0.0249 0.0243,-0.003 0.057,-0.002 0.0977,0.004 0,0 0,0 0,0 0.0811,0.0118 0.1949,0.0417 0.34011,0.0886 1e-5,0 1e-5,0 1e-5,0 l 0,0 c 0.28654,0.0926 0.70124,0.25359 1.23082,0.47329 l 0,0 c 1.0146,0.42092 2.56322,1.10597 4.44818,1.93159 l 0,0 c 3.59287,1.57362 8.79978,3.8371 15.1075,6.20114 l 0,0 c 5.69157,2.13241 12.5952,4.47539 20.08308,6.25744 6.46825,1.53497 13.68418,2.77811 21.0194,2.64723 0,0 0.049,-8.9e-4 0.049,-8.9e-4 10.17026,-0.18094 19.70355,0.33471 28.14428,-0.14391 0,0 1e-5,0 1e-5,0 4.35393,-0.25217 8.11451,-0.66882 11.6663,-1.68104 3.27062,-0.96086 5.8934,-2.23468 7.63117,-4.25088 1.81176,-2.06772 3.00754,-3.38257 4.37051,-5.0852 0.88041,-1.12282 1.51384,-1.90837 1.86883,-2.88001 0.27393,-0.6895 0.2302,-1.4387 0.0738,-2.02544 0,0 0,0 0,0 -0.50737,-1.90078 -1.16227,-2.94859 -1.02212,-3.0264 0.14014,-0.0778 1.0044,0.67357 1.88854,2.72104 -1e-5,0 0,0 0,0 0.2987,0.70424 0.47288,1.65994 0.20536,2.69123 -0.3341,1.21556 -0.97733,2.25372 -1.79357,3.42314 -1.22113,1.78361 -2.45632,3.33764 -4.10064,5.42166 -1.99587,2.47197 -4.94147,4.16377 -8.44262,5.25376 -3.76398,1.20329 -7.73451,1.7733 -12.16598,2.11136 0,0 -1e-5,0 -1e-5,0 -8.62495,0.668 -18.25318,0.25863 -28.27127,0.43597 0,0 -0.0515,8.5e-4 -0.0515,8.5e-4 -7.71575,0.1237 -15.15632,-1.20907 -21.74027,-2.89181 -7.64034,-1.94752 -14.56402,-4.50169 -20.24356,-6.8849 l 0,0 c -6.30275,-2.6439 -11.3786,-5.21132 -14.85114,-7.13151 l 0,0 c -1.84373,-1.01949 -3.24367,-1.86208 -4.19488,-2.48902 l 0,0 c -0.48319,-0.31846 -0.84279,-0.57642 -1.07821,-0.77008 l 0,0 c 0,0 0,0 0,0 -0.11837,-0.0974 -0.20438,-0.17779 -0.25772,-0.24065 0,0 0,0 0,0 -0.0268,-0.0316 -0.0452,-0.0586 -0.0553,-0.0811 -0.0104,-0.0232 -0.012,-0.0413 -0.005,-0.0547 z"
       style="fill:#000000;stroke:none;stroke-width:1px;stroke-linecap:butt;stroke-linejoin:miter;stroke-opacity:1" />
    <path
       inkscape:original-d="m 78.286822,120.71323 c 0,0 0,5.3033 6.060916,7.57614 6.060915,2.27285 10.354063,1.26269 10.354063,7.57615 0,6.31345 0.252538,12.87944 -3.788072,21.97082 -4.04061,9.09137 5.050763,37.1231 6.313454,38.89087 1.26269,1.76777 -0.757615,10.10152 -3.535534,13.38452 -2.77792,3.283 12.374371,16.92005 22.475891,20.70813 10.10153,3.78807 45.70941,18.94036 50.50763,18.94036 4.79822,0 32.57742,-2.77792 36.36549,-9.34391 3.78807,-6.566 -1.76777,-57.83124 -1.76777,-57.83124 0,0 13.8896,-9.09137 17.93021,-20.20305 4.04061,-11.11168 6.06092,-14.14213 3.03046,-25.00127"
       inkscape:path-effect="#path-effect2027"
       id="path2025"
       d="m 78.286822,120.71339 c 0.09306,-0.0241 0.446838,0.96635 1.028767,2.85505 0,0 10e-7,0 10e-7,0 0.769792,1.45759 2.377301,3.26855 5.211575,4.24246 2.063496,0.71808 4.700776,0.93572 7.543966,2.14116 0.921849,0.38538 1.849329,1.03253 2.478832,2.01761 0.70946,1.19106 0.925525,2.55845 0.922838,3.89584 0,0 0,1e-5 0,1e-5 0.09453,6.16587 -0.261883,14.58645 -3.61988,22.38824 -0.505953,1.14337 -0.702659,2.46378 -0.817423,3.87925 -0.127817,1.70721 -0.06377,3.45841 0.08969,5.28135 0.340155,4.01363 1.111567,8.05378 2.126246,12.3445 2e-6,0 2e-6,1e-5 3e-6,1e-5 0.855762,3.61058 1.877849,7.30346 3.096039,11.03756 0.401217,1.22898 0.820301,2.46218 1.28506,3.66813 0.148638,0.38496 0.296427,0.75767 0.455215,1.10993 0.115092,0.23207 0.163711,0.37662 0.195983,0.39804 0.726917,1.22303 0.755549,2.39808 0.622719,3.19696 0,0 -2e-6,1e-5 -2e-6,1e-5 -0.0684,1.38258 -0.317652,2.71993 -0.645879,4.01072 -0.62765,2.61847 -1.592469,5.45399 -3.530462,7.81021 0,0 -10e-7,-1e-5 -10e-7,-1e-5 -0.05319,-0.12791 0.0394,0.12777 0.04398,0.47655 0,0 0,1e-5 0,1e-5 0.132031,0.61601 0.53004,1.25779 0.985933,1.97428 1.391856,2.10865 3.262901,3.95076 5.285983,5.79848 2.39185,2.16977 4.98353,4.18474 7.75027,6.01713 2.50079,1.64907 5.11191,3.17964 7.88056,4.20485 3.87457,1.44506 7.62425,2.98435 11.51986,4.5533 5.12538,2.06395 10.48149,4.23014 15.75892,6.3176 1.79169,0.7086 3.59696,1.42029 5.40423,2.12219 3.12257,1.21274 6.21443,2.38202 9.31474,3.48357 1.77652,0.63072 3.5234,1.23481 5.27872,1.74535 0.61011,0.17695 1.2016,0.33976 1.78133,0.4627 0.40335,0.0769 0.71625,0.15028 0.94053,0.1401 0.86178,0.002 1.75704,-0.0608 2.67861,-0.1254 1.44836,-0.10312 2.89547,-0.23958 4.33664,-0.39421 3.83078,-0.41145 7.58952,-0.94769 11.27782,-1.63711 3.82957,-0.7195 7.50355,-1.54149 10.97635,-2.81469 1.40175,-0.51724 2.72803,-1.07544 3.8998,-1.80559 0,0 1e-5,-1e-5 1e-5,-1e-5 0.86951,-0.57482 1.64006,-1.1189 1.9876,-1.79051 0.20123,-0.31115 0.31487,-0.7853 0.45807,-1.34165 0,0 0,-1e-5 0,-1e-5 0.18382,-0.78678 0.29566,-1.61805 0.38897,-2.47167 0,0 1e-5,-1e-5 1e-5,-1e-5 0.26039,-2.40893 0.31451,-4.86822 0.33069,-7.29281 0.0417,-6.63627 -0.30994,-13.30567 -0.68873,-19.46427 0.24665,3.46272 -2.17018,-30.40186 -1.92353,-26.93914 2.67108,-2.20786 5.23334,-4.31556 7.68974,-6.32558 4.96947,-4.51914 8.52648,-8.85171 10.374,-13.77163 2.08732,-5.52083 3.49898,-8.17053 4.35487,-12.42536 0,0 0,0 0,0 0.74499,-3.60789 0.20892,-7.24284 -0.0899,-9.08248 -0.341,-2.09903 -0.58852,-3.19689 -0.49259,-3.22366 0.0959,-0.0268 0.53315,1.01272 1.06508,3.10441 0.47248,1.85789 1.23485,5.48638 0.62523,9.40133 0,0 0,0 0,0 -0.70221,4.38268 -2.08489,7.33908 -3.97889,12.76532 -1.86677,5.29387 -5.51065,10.03149 -10.56269,14.7431 -2.31641,1.793 -4.72677,3.64754 -7.23394,5.56578 0.13386,1.3005 2.55311,24.6936 2.68702,25.99406 0.44944,6.18356 0.86647,12.90709 0.87995,19.66381 0.006,2.45624 -0.0342,5.00587 -0.29019,7.57215 0,0 0,1e-5 0,1e-5 -0.0895,0.90784 -0.21324,1.84873 -0.42539,2.80294 0,0 -1e-5,1e-5 -1e-5,1e-5 -0.12777,0.63502 -0.33772,1.36695 -0.75041,2.11995 -0.77665,1.27706 -1.85967,2.15684 -2.91911,2.78278 0,0 -1e-5,1e-5 -1e-5,1e-5 -1.41501,0.88009 -2.91122,1.53145 -4.40438,2.08112 -3.6989,1.36995 -7.52546,2.2534 -11.42062,2.99369 -3.76836,0.71971 -7.60103,1.28011 -11.49796,1.70902 -1.46634,0.16156 -2.94812,0.30486 -4.44103,0.41471 -0.92576,0.0692 -1.89137,0.13678 -2.89104,0.13897 -0.61563,-0.0102 -1.13336,-0.10414 -1.5534,-0.20209 -0.68969,-0.14668 -1.35152,-0.32598 -1.99182,-0.51206 -1.84916,-0.53592 -3.65207,-1.15543 -5.44527,-1.79116 -3.13911,-1.11207 -6.25942,-2.29002 -9.39853,-3.50908 -1.81721,-0.7057 -3.62775,-1.42012 -5.42158,-2.131 -5.3031,-2.10132 -10.63854,-4.26856 -15.76889,-6.34877 -3.90695,-1.58392 -7.62388,-3.12376 -11.43744,-4.56175 -3.07154,-1.16487 -5.86794,-2.80617 -8.44761,-4.53929 -2.87782,-1.92536 -5.57168,-4.04377 -8.057033,-6.32567 -2.084349,-1.90135 -4.094119,-3.93497 -5.691533,-6.35492 -0.537959,-0.78915 -1.056212,-1.72553 -1.345112,-2.84761 0,0 -6e-6,-2e-5 -6e-6,-2e-5 -0.272843,-0.79647 -0.16701,-1.85551 0.536227,-2.87744 0,0 1.4e-5,-2e-5 1.4e-5,-2e-5 1.551561,-1.76789 2.363154,-4.24724 3.035529,-6.71073 0.306253,-1.18945 0.540709,-2.34991 0.601028,-3.4865 0,0 -10e-7,-1e-5 -10e-7,-1e-5 -0.04904,-0.83863 0.09775,-1.45674 -0.119112,-1.5539 -0.242151,-0.36276 -0.375185,-0.66005 -0.450776,-0.85836 -0.184892,-0.4235 -0.346516,-0.84103 -0.497105,-1.24517 -0.47602,-1.27499 -0.896594,-2.55421 -1.290632,-3.80838 -1.200812,-3.8191 -2.197113,-7.59016 -3.02012,-11.2726 0,0 -10e-7,-1e-5 -10e-7,-1e-5 -0.978181,-4.36675 -1.709075,-8.53943 -2.00117,-12.71199 -0.13376,-1.896 -0.167393,-3.76684 -7.8e-5,-5.6281 0.128819,-1.52969 0.412607,-3.07817 1.063788,-4.53836 3.335564,-7.25935 3.861857,-15.47848 3.956264,-21.5534 0,0 0,-1e-5 0,-1e-5 -0.0027,-1.21592 -0.09751,-2.31699 -0.608174,-3.15943 -0.367704,-0.67684 -1.069946,-1.17927 -1.798532,-1.53371 -2.505338,-1.19217 -5.190156,-1.53669 -7.355784,-2.40453 -3.062831,-1.23708 -4.694276,-3.38842 -5.380662,-5.00786 0,0 0,0 0,0 -0.421868,-1.98436 -0.593907,-3.02247 -0.500827,-3.04659 z"
       style="fill:#000000;stroke:none;stroke-width:1px;stroke-linecap:butt;stroke-linejoin:miter;stroke-opacity:1" />
    <path
       inkscape:original-d="m 118.03571,160.89286 c 0,0 26.42858,33.57143 69.28572,21.25"
       inkscape:path-effect="#path-effect2031"
       id="path2029"
       d="m 118.04104,160.89959 c 0.016,-0.013 0.037,-0.0197 0.0627,-0.0202 0,0 0,0 0,0 0.0285,0.004 0.0634,0.0156 0.10446,0.0349 0,0 0,0 0,0 0.0816,0.0384 0.18883,0.10733 0.32014,0.20411 l 0,0 0,0 c 0.25753,0.18961 0.62234,0.4975 1.0746,0.89225 l 0,0 c 0.97407,0.85021 2.09899,1.87275 3.82696,3.32326 l 0,0 c 3.25322,2.73021 7.85669,6.29522 13.87589,9.61653 3.778,2.08344 8.03396,4.00816 12.70766,5.50721 2.93534,0.94149 5.82527,1.64749 8.64778,2.1437 0,0 1e-5,0 1e-5,0 8.04927,1.42287 15.28433,1.03128 20.39746,0.45458 5.11313,-0.5767 8.16643,-1.24788 8.2627,-0.91304 0.0963,0.33484 -2.79653,1.63575 -7.96597,2.73432 -5.16944,1.09857 -12.68678,1.88987 -21.16645,0.56611 0,0 0,0 0,0 -2.96857,-0.4661 -6.00798,-1.17763 -9.08069,-2.16229 -4.89449,-1.56847 -9.31101,-3.64908 -13.17184,-5.93858 -6.13643,-3.6372 -10.67887,-7.63068 -13.67465,-10.76379 l 0,0 c -1.53434,-1.60435 -2.63192,-2.95201 -3.34153,-3.95195 l 0,0 c -0.35748,-0.50374 -0.60709,-0.90692 -0.75553,-1.20274 l 0,0 0,0 c -0.0741,-0.14789 -0.12183,-0.26685 -0.14359,-0.35602 0,0 0,0 0,0 -0.0109,-0.0446 -0.0152,-0.0815 -0.013,-0.11062 0,0 0,0 0,0 0.006,-0.0254 0.0168,-0.0447 0.0328,-0.0577 z"
       style="fill:#000000;stroke:none;stroke-width:1px;stroke-linecap:butt;stroke-linejoin:miter;stroke-opacity:1" />
    <path
       inkscape:original-d="m 77.27667,50.507627 c 0,0 -1.010153,44.951789 4.798224,55.053313"
       inkscape:path-effect="#path-effect2059"
       id="path2057"
       d="m 77.276471,50.516608 c 0.02485,5.04e-4 0.04937,0.0095 0.07356,0.02666 0,0 0,0 0,0 0.02346,0.02258 0.04657,0.05582 0.06932,0.09942 0,0 0,10e-7 0,10e-7 0.04537,0.08695 0.08939,0.2153 0.13211,0.382906 l 0,0 c 0.08486,0.332815 0.164983,0.82205 0.240957,1.45014 l 0,0 c 0.149436,1.235389 0.284525,3.025064 0.412587,5.228904 l 0,0 c 0.248728,4.279951 0.459739,9.946777 0.759474,16.499873 0.05985,1.30415 0.122288,2.65572 0.188845,4.010148 0.271805,5.531151 0.557998,9.908168 0.977939,14.327893 0,0 0,10e-7 0,2e-6 0.298152,3.127434 0.5701,5.329033 0.938464,7.54613 0.588288,3.43715 1.295699,5.3052 1.00517,5.47226 -0.355229,0.20425 -1.653339,-1.55412 -2.741289,-5.0545 -0.670891,-2.130959 -1.221084,-4.577311 -1.713741,-7.641912 0,0 -10e-7,-2e-6 -10e-7,-2e-6 -0.694442,-4.312033 -1.162638,-9.073521 -1.429399,-14.504304 -0.06745,-1.373275 -0.119047,-2.725828 -0.158613,-4.044513 -0.19753,-6.548169 -0.07013,-12.380074 0.182293,-16.61281 l 0,0 c 0.132298,-2.218945 0.299921,-4.000537 0.482398,-5.241421 l 0,0 c 0.09243,-0.628511 0.188265,-1.115068 0.285279,-1.446144 l 0,0 c 0.04876,-0.166336 0.09771,-0.29305 0.146601,-0.378345 10e-7,0 10e-7,0 10e-7,0 0.02451,-0.04275 0.04898,-0.07506 0.0734,-0.09671 0,0 0,0 0,0 0.02491,-0.01623 0.0498,-0.02419 0.07465,-0.02368 z"
       style="fill:#000000;stroke:none;stroke-width:1px;stroke-linecap:butt;stroke-linejoin:miter;stroke-opacity:1" />
  </g>
</svg>
